<svg width="626" height="626" viewBox="0 0 626 626" fill="none" xmlns="http://www.w3.org/2000/svg">
<g style="mix-blend-mode:overlay" opacity="0.5" clip-path="url(#clip0_168_833)">
<path d="M38.3049 454.569C37.7434 448.555 37.4233 442.438 37.3566 436.237C36.7278 381.961 55.103 328.24 87.7626 288.853L247.567 96.1311C280.216 56.7351 329.608 28.742 383.062 19.3114C409.888 14.5769 435.923 14.8175 460.424 20.0322C486.503 25.5817 509.553 36.5463 528.94 52.6134C548.318 68.6815 563.361 89.3123 573.643 113.913C583.303 137.025 588.359 162.555 588.674 189.804C589.302 244.081 570.927 297.802 538.268 337.189L378.463 529.911C345.803 569.297 296.412 597.291 242.958 606.731C216.132 611.466 190.097 611.225 165.596 606.01C139.517 600.461 116.468 589.496 97.0799 573.429C77.7022 557.361 62.659 536.73 52.3773 512.13C44.9151 494.276 40.2009 474.981 38.2959 454.579L38.3049 454.569ZM88.5246 289.485C24.6135 366.56 14.9725 504.032 97.7299 572.645C135.364 603.852 186.88 615.603 242.795 605.742C296.023 596.353 345.195 568.481 377.71 529.268L537.515 336.546C601.407 259.482 611.048 122.01 528.299 53.3864C445.541 -15.2368 312.231 19.6883 248.329 96.763L88.5246 289.485Z" fill="url(#paint0_linear_168_833)"/>
<path d="M244.273 100.858C260.503 81.2841 280.867 65.3217 303.217 53.3018C325.596 41.2792 350.041 33.1011 375.16 29.229C400.261 25.3787 426.127 25.856 450.927 31.5851C463.317 34.4457 475.399 38.6405 486.844 44.1805C498.289 49.7205 509.086 56.6165 518.883 64.7309C528.672 72.866 537.447 82.1906 545.01 92.4117C552.573 102.633 558.943 113.739 564.037 125.376C574.258 148.676 579.516 174.017 580.38 199.397C581.225 224.798 577.714 250.335 570.042 274.553C562.369 298.752 550.452 321.719 534.221 341.283C550.408 321.673 562.273 298.7 569.907 274.506C577.539 250.291 581.001 224.769 580.119 199.401C579.218 174.055 573.925 148.768 563.689 125.519C558.577 113.904 552.221 102.847 544.651 92.6562C537.092 82.4749 528.321 73.1901 518.556 65.0929C508.8 56.9947 498.052 50.0941 486.638 44.5513C475.233 39.0076 463.179 34.8 450.819 31.9267C426.087 26.1711 400.256 25.6503 375.172 29.4589C350.079 33.2884 325.639 41.4158 303.256 53.3986C280.893 65.3796 260.515 81.3031 244.252 100.85L244.251 100.84L244.273 100.858Z" fill="url(#paint1_linear_168_833)"/>
<path d="M370.92 537.123C353.476 554.671 332.631 568.709 310.16 578.993C287.669 589.279 263.476 595.866 238.853 598.266C214.248 600.654 189.127 598.801 165.348 591.852C141.595 584.961 119.277 572.793 101.082 555.951C82.8425 539.164 68.8265 518.026 59.6805 495.047C50.4929 472.051 45.9735 447.314 45.5835 422.593C45.2026 397.862 48.9237 373.068 56.5907 349.554C64.2705 326.068 75.9785 303.773 91.7866 284.731C76.0329 303.818 64.3748 326.109 56.7357 349.6C49.1085 373.111 45.4263 397.891 45.8443 422.589C46.2713 447.276 50.8268 471.97 60.0288 494.904C69.1891 517.821 83.1986 538.89 101.41 555.589C110.487 563.952 120.558 571.237 131.342 577.24C142.128 583.253 153.609 587.997 165.453 591.471C189.164 598.436 214.238 600.333 238.817 597.988C263.414 595.631 287.59 589.085 310.086 578.849C332.561 568.606 353.42 554.606 370.887 537.086L370.91 537.114L370.92 537.123Z" fill="url(#paint2_linear_168_833)"/>
<path d="M235.182 111.81C250.442 93.4622 270.34 79.2809 292.011 69.4637C313.72 59.6227 337.281 54.018 361.066 52.5303C384.852 51.0526 408.915 53.737 431.715 60.7376C454.512 67.7084 475.974 79.1024 494.377 94.2973C512.716 109.568 527.887 128.56 538.957 149.663C550.058 170.772 557.151 193.923 560.102 217.571C563.042 241.21 561.886 265.402 556.246 288.567C550.61 311.681 540.357 333.85 525.152 352.253C540.314 333.824 550.517 311.649 556.113 288.539C561.714 265.388 562.822 241.22 559.845 217.615C556.857 194.01 549.727 170.893 538.623 149.854C527.538 128.804 512.374 109.892 494.062 94.6883C475.731 79.5068 454.338 68.1063 431.599 61.11C408.857 54.0839 384.831 51.3659 361.081 52.8001C337.333 54.2442 313.778 59.8082 292.074 69.5984C270.399 79.3759 250.497 93.5074 235.204 111.829L235.203 111.819L235.182 111.81Z" fill="url(#paint3_linear_168_833)"/>
<path d="M381.23 524.681C364.611 540.956 344.257 553.161 322.532 561.327C300.767 569.495 277.556 573.681 254.318 573.923C231.08 574.164 207.768 570.395 185.872 562.527C163.978 554.688 143.57 542.644 126.315 527.04C109.032 511.47 94.8869 492.493 84.6424 471.625C74.3581 450.76 67.9868 428.024 65.5085 404.925C63.0501 381.823 64.4863 358.268 70.2066 335.738C75.9205 313.25 86.0414 291.705 100.879 273.778C86.0958 291.75 76.0257 313.3 70.3506 335.775C64.6693 358.291 63.2719 381.833 65.7673 404.9C68.2727 427.967 74.6693 450.651 84.9788 471.463C95.2385 492.279 109.377 511.176 126.643 526.678C143.854 542.236 164.174 554.309 186.009 562.163C207.846 570.047 231.111 573.85 254.313 573.652C277.525 573.453 300.719 569.299 322.479 561.181C344.198 553.067 364.565 540.9 381.207 524.653L381.23 524.681Z" fill="url(#paint4_linear_168_833)"/>
<path d="M225.846 123.047C232.96 114.469 241.438 107.068 250.749 100.936C260.059 94.8041 270.165 89.8832 280.71 86.217C301.81 78.8836 324.345 76.0663 346.635 76.9579C357.784 77.4033 368.912 78.7948 379.833 81.0894C390.763 83.3831 401.522 86.5265 411.924 90.577C432.764 98.6444 452.262 110.081 469.525 124.268C486.663 138.607 501.512 155.66 513.298 174.636C519.205 184.118 524.286 194.109 528.562 204.416C532.84 214.733 536.267 225.401 538.769 236.275C543.771 258.014 545.175 280.682 541.874 302.775C540.223 313.806 537.259 324.658 532.956 334.943C528.653 345.218 522.951 354.93 515.838 363.508C522.822 354.831 528.399 345.081 532.591 334.796C536.772 324.503 539.608 313.672 541.142 302.672C544.279 280.665 542.758 258.129 537.659 236.55C532.51 214.965 523.912 194.194 512.16 175.365C500.419 156.535 485.633 139.627 468.589 125.43C451.472 111.31 432.129 99.9089 411.451 91.8565C390.771 83.7941 368.768 79.1898 346.603 78.1259C324.453 77.1108 302.014 79.7785 280.979 86.9452C270.453 90.4891 260.334 95.2806 250.993 101.295C241.652 107.31 233.113 114.605 225.912 123.101L225.868 123.065L225.846 123.047Z" fill="url(#paint5_linear_168_833)"/>
<path d="M391.842 511.949C383.955 519.455 374.985 525.786 365.394 530.95C355.805 536.144 345.578 540.092 335.072 542.991C314.025 548.743 291.93 550.364 270.212 548.485C248.474 546.618 227.071 541.124 207.006 532.542C186.95 523.95 168.2 512.232 151.87 497.728C143.693 490.497 136.069 482.641 129.098 474.243C122.146 465.833 115.913 456.833 110.364 447.429C99.3081 428.625 91.1242 408.097 86.5497 386.75C84.2485 376.088 82.8621 365.219 82.447 354.321C82.032 343.422 82.6073 332.481 84.3736 321.71C86.1517 310.959 89.091 300.379 93.3569 290.349C97.6139 280.33 103.218 270.858 110.179 262.485L110.266 262.557C103.401 270.992 97.9103 280.493 93.7747 290.521C89.6301 300.56 86.8094 311.118 85.148 321.829C81.809 343.292 83.0335 365.334 87.6908 386.493C92.3997 407.667 100.521 428.06 111.554 446.725C117.075 456.052 123.281 464.974 130.208 473.326C137.142 481.657 144.728 489.436 152.86 496.601C185.29 525.421 227.133 543.298 270.33 547.279C291.909 549.271 313.897 547.801 334.867 542.197C345.355 539.43 355.584 535.602 365.194 530.527C374.806 525.482 383.816 519.257 391.782 511.844L391.859 511.917L391.842 511.949Z" fill="url(#paint6_linear_168_833)"/>
<path d="M182.674 175.046C183.997 173.406 186.02 172.484 188.059 172.052C190.107 171.62 192.211 171.564 194.29 171.671C198.453 171.936 202.531 172.8 206.538 173.872C214.546 176.057 222.28 179.081 229.86 182.381C244.981 189.114 259.497 197.099 273.625 205.673C301.884 222.85 328.602 242.451 354.078 263.484C379.464 284.635 403.663 307.263 425.784 331.843C436.825 344.14 447.359 356.926 456.776 370.54C461.432 377.376 465.835 384.417 469.455 391.883C471.25 395.612 472.865 399.469 473.885 403.512C474.376 405.535 474.7 407.614 474.665 409.706C474.627 411.778 474.096 413.947 472.72 415.552L472.6 415.453C473.853 413.819 474.239 411.714 474.182 409.701C474.113 407.668 473.685 405.67 473.111 403.715C471.932 399.807 470.219 396.08 468.294 392.464C464.426 385.242 459.794 378.443 454.919 371.848C445.17 358.647 434.349 346.239 423.163 334.217C411.921 322.24 400.282 310.632 388.23 299.454C376.216 288.243 363.873 277.383 351.196 266.927C338.564 256.415 325.616 246.285 312.374 236.554C299.158 226.781 285.596 217.491 271.745 208.661C257.859 199.894 243.673 191.556 228.885 184.42C221.501 180.841 213.962 177.548 206.15 175.094C202.249 173.871 198.26 172.878 194.202 172.443C192.173 172.231 190.13 172.18 188.12 172.499C186.13 172.805 184.144 173.583 182.761 175.118L182.641 175.019L182.674 175.046Z" fill="url(#paint7_linear_168_833)"/>
<path d="M440.834 453.009C438.961 453.927 436.864 454.273 434.804 454.375C432.735 454.478 430.663 454.34 428.62 454.079C424.53 453.517 420.521 452.525 416.584 451.346C408.709 448.968 401.078 445.874 393.593 442.515C378.663 435.674 364.308 427.684 350.331 419.116C336.334 410.56 322.787 401.32 309.488 391.734C296.252 382.063 283.3 372.004 270.71 361.509C245.567 340.485 221.612 317.995 199.698 293.587C188.756 281.381 178.32 268.686 168.993 255.165C164.381 248.374 160.013 241.39 156.419 233.982C154.637 230.282 153.044 226.453 152.036 222.43C151.556 220.415 151.223 218.347 151.269 216.264C151.318 214.201 151.848 212.032 153.224 210.417L153.475 210.625C152.248 212.226 151.857 214.281 151.902 216.265C151.959 218.269 152.375 220.259 152.937 222.185C154.092 226.054 155.774 229.764 157.675 233.343C161.488 240.509 166.066 247.273 170.885 253.813C180.527 266.933 191.238 279.251 202.307 291.194C213.431 303.091 224.982 314.617 236.897 325.727C248.812 336.848 261.02 347.66 273.581 358.047C286.114 368.467 298.909 378.581 312.043 388.232C325.124 397.958 338.553 407.209 352.251 416.024C359.109 420.415 366.065 424.667 373.114 428.739C380.154 432.823 387.318 436.724 394.614 440.321C401.902 443.939 409.327 447.303 417.016 449.95C420.855 451.269 424.767 452.4 428.751 453.112C430.743 453.469 432.754 453.713 434.774 453.725C436.784 453.738 438.821 453.508 440.685 452.711L440.823 453L440.834 453.009Z" fill="url(#paint8_linear_168_833)"/>
<path d="M199.745 154.48C202.634 150.886 206.339 147.969 210.401 145.761C214.496 143.581 218.915 142.074 223.429 141.04C232.479 139.01 241.837 138.769 251.057 139.414C260.282 140.11 269.423 141.747 278.397 143.952C287.372 146.167 296.19 148.96 304.848 152.189C322.172 158.636 338.755 166.93 354.632 176.375C370.483 185.862 385.567 196.607 399.802 208.364C413.992 220.186 427.352 233.009 439.6 246.831C451.81 260.675 463.032 275.446 472.585 291.276C477.361 299.187 481.738 307.335 485.576 315.745C489.405 324.155 492.695 332.827 495.097 341.772C497.439 350.713 498.924 359.955 498.615 369.224C498.434 373.851 497.771 378.473 496.386 382.901C494.97 387.311 492.789 391.482 489.792 394.986L489.704 394.914C492.562 391.313 494.56 387.109 495.787 382.716C496.395 380.519 496.839 378.278 497.15 376.02C497.441 373.753 497.57 371.481 497.608 369.198C497.669 360.062 495.948 350.993 493.394 342.243C488.279 324.682 479.95 308.195 470.277 292.697C460.507 277.229 449.381 262.63 437.135 249.039C424.915 235.416 411.678 222.722 397.572 211.053C383.504 199.36 368.567 188.693 352.918 179.207C337.295 169.688 320.879 161.458 303.879 154.72C286.858 148.083 269.114 142.951 250.91 141.175C241.838 140.285 232.608 140.283 223.641 142.024C221.404 142.484 219.195 143.032 217.022 143.737C214.859 144.451 212.739 145.302 210.694 146.317C206.614 148.335 202.843 151.077 199.833 154.552L199.745 154.48Z" fill="url(#paint9_linear_168_833)"/>
<path d="M421.476 476.31C417.937 479.171 413.846 481.291 409.576 482.884C407.455 483.725 405.234 484.254 403.031 484.861C400.801 485.291 398.572 485.83 396.303 486.062C387.261 487.318 378.085 487.04 369.041 486.016C350.939 483.83 333.341 478.644 316.43 471.997C307.964 468.67 299.677 464.894 291.56 460.791C283.461 456.656 275.532 452.194 267.767 447.455C260.003 442.716 252.475 437.604 245.108 432.276C237.723 426.969 230.587 421.328 223.624 415.48C209.76 403.718 196.691 390.998 184.744 377.28C172.816 363.559 161.86 348.944 152.566 333.301C147.899 325.491 143.642 317.432 139.914 309.132C136.206 300.831 132.987 292.273 130.696 283.448C128.456 274.628 127.034 265.521 127.406 256.387C127.505 254.108 127.744 251.836 128.086 249.574C128.458 247.32 128.983 245.091 129.674 242.918C131.076 238.578 133.254 234.468 136.194 231L136.39 231.162C133.586 234.698 131.59 238.812 130.367 243.134C129.754 245.29 129.297 247.492 128.982 249.711C128.698 251.937 128.525 254.173 128.483 256.417C128.359 265.407 129.996 274.334 132.43 282.975C134.894 291.623 138.161 300.036 141.975 308.187C145.789 316.337 150.133 324.248 154.875 331.9C164.379 347.203 175.277 361.622 187.223 375.11C199.168 388.598 212.097 401.21 225.886 412.819L228.479 414.987L231.108 417.112C232.867 418.524 234.589 419.97 236.375 421.35L241.722 425.481C243.498 426.862 245.346 428.156 247.149 429.504C254.433 434.8 261.879 439.89 269.55 444.607C277.196 449.367 285.008 453.86 292.999 458.025C301.007 462.148 309.177 465.955 317.485 469.418C334.115 476.281 351.454 481.703 369.29 484.165C378.186 485.424 387.233 485.945 396.179 484.949C398.423 484.779 400.62 484.313 402.845 483.945C405.025 483.41 407.231 482.943 409.338 482.173C413.596 480.771 417.713 478.82 421.337 476.112L421.496 476.308L421.476 476.31Z" fill="url(#paint10_linear_168_833)"/>
<path d="M214.028 137.277C220.558 129.436 228.759 122.936 237.959 118.421C247.111 113.82 256.971 110.67 267.052 108.814C287.262 105.19 308.076 106.089 328.206 109.773C338.281 111.624 348.226 114.221 357.951 117.481C367.659 120.773 377.154 124.687 386.379 129.149C404.864 138.019 422.139 149.321 438.004 162.293C453.688 175.482 467.994 190.366 480.133 206.889C486.225 215.128 491.828 223.725 496.861 232.666C501.865 241.609 506.258 250.901 509.943 260.47C517.301 279.568 522.027 299.857 522.207 320.389C522.25 330.64 520.98 340.912 518.153 350.758C515.419 360.634 510.549 369.897 504.053 377.765L503.987 377.711L506.261 374.637C506.635 374.12 507.03 373.621 507.393 373.095L508.396 371.464C509.057 370.378 509.74 369.3 510.381 368.206L512.112 364.8C512.39 364.232 512.7 363.67 512.967 363.093L513.707 361.337L515.166 357.816L516.375 354.198L516.98 352.394C517.154 351.785 517.307 351.168 517.46 350.551C520.099 340.733 521.166 330.54 520.952 320.396C520.53 300.067 515.635 280.015 508.14 261.17C504.367 251.74 499.937 242.583 494.972 233.726C489.959 224.894 484.374 216.386 478.311 208.244C466.22 191.918 451.993 177.227 436.416 164.219C420.748 151.309 403.677 140.048 385.395 131.199C376.272 126.748 366.878 122.834 357.27 119.543C347.647 116.304 337.827 113.645 327.862 111.683C307.955 107.807 287.345 106.719 267.288 110.058C257.279 111.716 247.45 114.662 238.301 119.072C237.724 119.347 237.145 119.602 236.579 119.885L234.918 120.814L231.586 122.672L228.397 124.767L226.808 125.82C226.291 126.189 225.796 126.597 225.289 126.976L222.263 129.307C221.306 130.14 220.373 131.01 219.428 131.862L218.012 133.149C217.562 133.603 217.144 134.074 216.706 134.547L214.105 137.35L214.04 137.296L214.028 137.277Z" fill="url(#paint11_linear_168_833)"/>
<path d="M405.259 495.811C397.808 502.493 389.071 507.768 379.68 511.317C370.316 514.933 360.474 517.308 350.499 518.471C330.517 520.778 310.222 519.088 290.627 514.781C280.814 512.634 271.165 509.759 261.742 506.29C252.31 502.832 243.094 498.791 234.176 494.17C216.349 484.927 199.504 473.715 184.332 460.528C180.486 457.302 176.866 453.813 173.201 450.379L167.881 445.041C166.099 443.269 164.445 441.374 162.728 439.546C155.959 432.123 149.569 424.354 143.715 416.192C132.073 399.834 122.225 382.133 115.193 363.295C111.693 353.88 108.861 344.211 106.877 334.363C104.913 324.513 103.725 314.48 103.821 304.427C103.918 294.385 105.188 284.323 108.024 274.688C110.82 265.046 115.576 255.964 121.957 248.248L122.098 248.365L119.868 251.376L118.753 252.876L117.766 254.464L115.804 257.651L114.107 260.983L113.258 262.649C112.989 263.216 112.773 263.799 112.524 264.365L111.088 267.813C110.644 268.969 110.284 270.168 109.881 271.341C109.499 272.521 109.046 273.688 108.778 274.909C106.129 284.506 105.042 294.491 105.117 304.437C105.173 314.385 106.421 324.312 108.474 334.043C110.539 343.783 113.45 353.334 117.009 362.623C124.225 381.183 133.967 398.713 145.57 414.874C151.396 422.948 157.757 430.619 164.488 437.955C166.203 439.764 167.844 441.629 169.615 443.382L174.898 448.654C178.538 452.04 182.134 455.491 185.957 458.669C216.045 484.675 252.254 503.851 291.07 512.861C310.44 517.34 330.533 519.23 350.347 517.169C360.249 516.184 370.04 514.025 379.392 510.6L381.151 509.964C381.732 509.729 382.3 509.475 382.87 509.231L386.298 507.756C387.424 507.229 388.523 506.634 389.636 506.078C390.749 505.522 391.863 504.967 392.915 504.296L396.131 502.389C397.184 501.718 398.19 500.981 399.219 500.282L400.756 499.215C401.264 498.846 401.729 498.441 402.225 498.053L405.139 495.702L405.261 495.831L405.259 495.811Z" fill="url(#paint12_linear_168_833)"/>
<path d="M457.627 433.664L448.371 426.383L439.169 419.046L420.764 404.364L402.43 389.584L384.151 374.74L347.712 344.928L311.425 314.922C287.285 294.859 263.19 274.742 239.222 254.473C215.227 234.236 191.376 213.825 167.669 193.24L168.392 192.369C193.019 211.844 217.484 231.514 241.813 251.348C266.169 271.15 290.399 291.103 314.584 311.112L350.79 341.216L386.832 371.506L404.804 386.721L422.723 402.002L440.559 417.37L449.472 425.055L458.341 432.804L457.618 433.675L457.627 433.664Z" fill="url(#paint13_linear_168_833)"/>
<path d="M54.6376 485.133C53.6075 474.101 53.5375 462.487 54.4757 450.377C58.3648 399.847 79.3218 348.285 111.963 308.92L271.768 116.198C304.419 76.822 351.21 46.6913 400.137 33.5155C451.621 19.649 497.36 26.4361 528.931 52.6143C560.501 78.7926 575.64 122.494 571.543 175.646C567.654 226.176 546.697 277.738 514.056 317.103L354.251 509.825C321.6 549.201 274.809 579.331 225.882 592.507C174.398 606.374 128.659 599.587 97.0885 573.408C72.7029 553.188 58.1296 522.53 54.6376 485.133ZM570.397 140.992C566.929 103.854 552.478 73.4353 528.3 53.3864C496.98 27.4157 451.559 20.7094 400.398 34.4755C351.657 47.6037 305.056 77.6163 272.531 116.84L112.726 309.562C80.2112 348.774 59.336 400.138 55.4582 450.466C51.3919 503.293 66.4011 546.686 97.7213 572.656C129.041 598.627 174.462 605.333 225.623 591.567C274.364 578.439 320.966 548.426 353.49 509.203L513.295 316.481C545.81 277.268 566.685 225.905 570.563 175.576C571.487 163.528 571.421 151.964 570.397 140.992Z" fill="url(#paint14_linear_168_833)"/>
<path d="M81.8555 539.99C80.3494 523.86 83.2533 503.652 90.6281 480.235C104.036 437.634 130.441 390.636 163.064 351.293L322.869 158.571C355.492 119.227 396.79 84.578 436.172 63.5154C477.688 41.3095 510.641 37.4391 528.942 52.6235C547.252 67.8069 549.549 100.897 535.413 145.805C522.005 188.406 495.6 235.405 462.977 274.748L303.172 467.47C270.548 506.813 229.251 541.463 189.868 562.525C148.353 584.731 115.4 588.602 97.0993 573.417C88.3358 566.151 83.247 554.784 81.8655 539.989L81.8555 539.99ZM163.826 351.924C131.284 391.17 104.947 438.041 91.5795 480.528C77.5755 525.023 79.7568 557.742 97.7303 572.645C115.704 587.549 148.261 583.635 189.394 561.636C228.671 540.633 269.857 506.074 302.399 466.829L462.204 274.107C494.746 234.862 521.083 187.99 534.45 145.504C548.454 101.009 546.273 68.29 528.3 53.3864C510.326 38.4829 477.769 42.3967 436.636 64.3961C397.359 85.3986 356.173 119.957 323.631 159.203L163.826 351.924Z" fill="url(#paint15_linear_168_833)"/>
<path d="M529 53.3219L528.23 52.6836L97.0237 572.711L97.7935 573.349L529 53.3219Z" fill="url(#paint16_linear_168_833)"/>
</g>
<defs>
<linearGradient id="paint0_linear_168_833" x1="286.356" y1="27.5797" x2="336.698" y2="600.591" gradientUnits="userSpaceOnUse">
<stop stop-color="#53EBFF"/>
<stop offset="1" stop-color="#239EAE"/>
</linearGradient>
<linearGradient id="paint1_linear_168_833" x1="400.958" y1="26.4369" x2="429.57" y2="352.107" gradientUnits="userSpaceOnUse">
<stop stop-color="#53EBFF"/>
<stop offset="1" stop-color="#239EAE"/>
</linearGradient>
<linearGradient id="paint2_linear_168_833" x1="188.856" y1="275.667" x2="217.398" y2="601.322" gradientUnits="userSpaceOnUse">
<stop stop-color="#53EBFF"/>
<stop offset="1" stop-color="#239EAE"/>
</linearGradient>
<linearGradient id="paint3_linear_168_833" x1="386.983" y1="50.0131" x2="414.532" y2="363.596" gradientUnits="userSpaceOnUse">
<stop stop-color="#53EBFF"/>
<stop offset="1" stop-color="#239EAE"/>
</linearGradient>
<linearGradient id="paint4_linear_168_833" x1="204.619" y1="264.092" x2="232.112" y2="577.713" gradientUnits="userSpaceOnUse">
<stop stop-color="#53EBFF"/>
<stop offset="1" stop-color="#239EAE"/>
</linearGradient>
<linearGradient id="paint5_linear_168_833" x1="373.193" y1="72.7384" x2="399.777" y2="375.323" gradientUnits="userSpaceOnUse">
<stop stop-color="#53EBFF"/>
<stop offset="1" stop-color="#239EAE"/>
</linearGradient>
<linearGradient id="paint6_linear_168_833" x1="220.121" y1="252.219" x2="246.656" y2="554.84" gradientUnits="userSpaceOnUse">
<stop stop-color="#53EBFF"/>
<stop offset="1" stop-color="#239EAE"/>
</linearGradient>
<linearGradient id="paint7_linear_168_833" x1="316.348" y1="159.951" x2="339.969" y2="428.816" gradientUnits="userSpaceOnUse">
<stop stop-color="#53EBFF"/>
<stop offset="1" stop-color="#239EAE"/>
</linearGradient>
<linearGradient id="paint8_linear_168_833" x1="283.257" y1="198.275" x2="306.87" y2="467.213" gradientUnits="userSpaceOnUse">
<stop stop-color="#53EBFF"/>
<stop offset="1" stop-color="#239EAE"/>
</linearGradient>
<linearGradient id="paint9_linear_168_833" x1="337.157" y1="129.803" x2="361.585" y2="407.856" gradientUnits="userSpaceOnUse">
<stop stop-color="#53EBFF"/>
<stop offset="1" stop-color="#239EAE"/>
</linearGradient>
<linearGradient id="paint10_linear_168_833" x1="260.395" y1="219.403" x2="284.794" y2="497.456" gradientUnits="userSpaceOnUse">
<stop stop-color="#53EBFF"/>
<stop offset="1" stop-color="#239EAE"/>
</linearGradient>
<linearGradient id="paint11_linear_168_833" x1="356.339" y1="99.9694" x2="381.83" y2="390.115" gradientUnits="userSpaceOnUse">
<stop stop-color="#53EBFF"/>
<stop offset="1" stop-color="#239EAE"/>
</linearGradient>
<linearGradient id="paint12_linear_168_833" x1="239.008" y1="237.318" x2="264.459" y2="527.478" gradientUnits="userSpaceOnUse">
<stop stop-color="#53EBFF"/>
<stop offset="1" stop-color="#239EAE"/>
</linearGradient>
<linearGradient id="paint13_linear_168_833" x1="300.587" y1="180.025" x2="324.042" y2="447.01" gradientUnits="userSpaceOnUse">
<stop stop-color="#53EBFF"/>
<stop offset="1" stop-color="#239EAE"/>
</linearGradient>
<linearGradient id="paint14_linear_168_833" x1="287.605" y1="40.9396" x2="335.589" y2="587.111" gradientUnits="userSpaceOnUse">
<stop stop-color="#53EBFF"/>
<stop offset="1" stop-color="#239EAE"/>
</linearGradient>
<linearGradient id="paint15_linear_168_833" x1="289.658" y1="62.8484" x2="333.78" y2="565.058" gradientUnits="userSpaceOnUse">
<stop stop-color="#53EBFF"/>
<stop offset="1" stop-color="#239EAE"/>
</linearGradient>
<linearGradient id="paint16_linear_168_833" x1="312.627" y1="312.697" x2="313.399" y2="313.338" gradientUnits="userSpaceOnUse">
<stop stop-color="#53EBFF"/>
<stop offset="1" stop-color="#239EAE"/>
</linearGradient>
<clipPath id="clip0_168_833">
<rect width="573.36" height="573.36" fill="white" transform="translate(571.801 0.924805) rotate(84.6655)"/>
</clipPath>
</defs>
</svg>
