<svg width="578" height="578" viewBox="0 0 578 578" fill="none" xmlns="http://www.w3.org/2000/svg">
<path d="M290.74 423.6C283.74 423.6 276.08 422.45 267.93 420.11C245.02 413.55 220.92 398.46 200.08 377.62C179.24 356.78 164.15 332.69 157.59 309.77C151.02 286.83 153.79 267.81 165.37 256.23C176.96 244.64 195.97 241.88 218.91 248.45C241.82 255.01 265.92 270.1 286.76 290.94C307.6 311.78 322.69 335.87 329.25 358.79C335.82 381.73 333.05 400.74 321.47 412.33C314 419.8 303.44 423.6 290.74 423.6ZM196.11 245.2C183.47 245.2 172.98 248.98 165.56 256.4C141.76 280.2 157.33 334.5 200.27 377.44C229.57 406.74 264.16 423.29 290.74 423.29C303.12 423.29 313.75 419.7 321.31 412.14C332.83 400.62 335.57 381.69 329.03 358.84C322.48 335.97 307.41 311.91 286.6 291.1C265.79 270.29 241.73 255.22 218.86 248.67C210.73 246.34 203.1 245.19 196.12 245.19L196.11 245.2Z" fill="url(#paint0_linear_168_894)"/>
<path d="M303.46 410.89C276.78 410.89 242.11 394.31 212.75 364.95C191.9 344.1 176.81 320 170.24 297.07C163.66 274.1 166.44 255.06 178.04 243.45C189.65 231.84 208.69 229.07 231.66 235.65C254.59 242.21 278.69 257.31 299.54 278.16C342.6 321.23 358.17 375.73 334.25 399.66C326.63 407.28 315.92 410.89 303.46 410.89ZM208.83 232.56C196.21 232.56 185.73 236.33 178.33 243.74C166.83 255.24 164.1 274.14 170.63 296.96C177.18 319.82 192.24 343.87 213.04 364.67C242.32 393.95 276.89 410.5 303.45 410.51C315.81 410.51 326.42 406.93 333.97 399.38C357.74 375.61 342.17 321.36 299.26 278.45C278.46 257.65 254.41 242.59 231.55 236.04C223.43 233.71 215.8 232.56 208.83 232.56Z" fill="url(#paint1_linear_168_894)"/>
<path d="M316.19 398.24C289.49 398.24 254.8 381.66 225.42 352.28C204.56 331.42 189.46 307.3 182.89 284.37C176.31 261.38 179.08 242.31 190.71 230.68C202.34 219.05 221.4 216.27 244.4 222.86C267.34 229.43 291.46 244.53 312.31 265.39C355.4 308.48 370.97 363.04 347.02 386.99C339.39 394.62 328.66 398.24 316.18 398.24H316.19ZM221.55 219.91C208.95 219.91 198.49 223.67 191.1 231.07C167.36 254.81 182.93 309.02 225.81 351.9C255.08 381.17 289.63 397.71 316.16 397.72C328.5 397.72 339.1 394.14 346.63 386.61C358.11 375.13 360.84 356.25 354.31 333.46C347.77 310.61 332.71 286.58 311.92 265.78C291.13 244.98 267.09 229.94 244.24 223.39C236.12 221.07 228.5 219.92 221.54 219.92L221.55 219.91Z" fill="url(#paint2_linear_168_894)"/>
<path d="M328.91 385.66C321.89 385.66 314.21 384.5 306.04 382.16C283.09 375.59 258.96 360.48 238.09 339.61C217.22 318.74 202.11 294.61 195.54 271.66C188.95 248.64 191.73 229.54 203.38 217.9C215.03 206.25 234.12 203.47 257.14 210.06C280.09 216.63 304.22 231.74 325.09 252.61C345.96 273.48 361.07 297.61 367.64 320.56C374.23 343.58 371.45 362.68 359.8 374.32C352.29 381.83 341.68 385.66 328.91 385.66ZM234.3 207.31C221.98 207.31 211.4 210.88 203.88 218.4C180.17 242.11 195.73 296.27 238.59 339.12C267.85 368.38 302.38 384.91 328.89 384.92C341.21 384.92 351.79 381.35 359.31 373.83C383.02 350.12 367.46 295.96 324.6 253.11C295.34 223.85 260.81 207.31 234.3 207.31Z" fill="url(#paint3_linear_168_894)"/>
<path d="M341.63 373.01C334.6 373.01 326.92 371.85 318.74 369.51C295.78 362.94 271.64 347.82 250.76 326.94C229.89 306.07 214.77 281.92 208.19 258.96C201.59 235.91 204.38 216.79 216.05 205.12C227.72 193.45 246.84 190.66 269.89 197.26C292.85 203.83 316.99 218.95 337.87 239.83C358.74 260.7 373.86 284.85 380.44 307.81C387.04 330.86 384.25 349.98 372.58 361.65C365.05 369.18 354.42 373.01 341.64 373.01H341.63ZM247.03 194.65C234.73 194.65 224.17 198.21 216.66 205.72C192.98 229.4 208.54 283.51 251.37 326.33C294.19 369.15 348.3 384.72 371.98 361.04C395.66 337.36 380.1 283.25 337.27 240.43C308.03 211.19 273.52 194.65 247.03 194.65Z" fill="url(#paint4_linear_168_894)"/>
<path d="M354.35 360.36C347.31 360.36 339.62 359.2 331.44 356.86C308.47 350.28 284.31 335.16 263.43 314.28C242.55 293.4 227.42 269.24 220.85 246.27C214.24 223.19 217.04 204.05 228.73 192.36C240.42 180.67 259.56 177.87 282.64 184.48C305.61 191.06 329.77 206.18 350.65 227.06C371.53 247.94 386.66 272.1 393.23 295.07C399.84 318.15 397.04 337.29 385.35 348.98C377.81 356.52 367.16 360.36 354.35 360.36ZM259.72 181.97C247.18 181.97 236.78 185.71 229.43 193.06C218.01 204.48 215.3 223.28 221.81 245.99C228.34 268.8 243.38 292.8 264.14 313.57C284.91 334.33 308.91 349.37 331.72 355.9C354.43 362.4 373.23 359.7 384.65 348.28C396.07 336.86 398.78 318.06 392.27 295.35C385.74 272.54 370.7 248.54 349.94 227.77C329.17 207.01 305.17 191.97 282.36 185.44C274.26 183.12 266.67 181.97 259.72 181.97Z" fill="url(#paint5_linear_168_894)"/>
<path d="M229.4 177.51C233.99 173.03 239.58 169.55 245.66 167.58L247.94 166.84L250.26 166.26L251.42 165.97L252.59 165.76L254.94 165.35C256.52 165.16 258.1 164.96 259.68 164.85C261.26 164.79 262.85 164.64 264.43 164.7C277.13 164.76 289.57 167.9 301.26 172.49C312.96 177.13 324.04 183.22 334.37 190.36C339.53 193.93 344.54 197.72 349.36 201.75C354.16 205.79 358.79 210.04 363.25 214.45C367.66 218.91 371.91 223.54 375.95 228.34C379.98 233.16 383.77 238.17 387.34 243.33C394.48 253.66 400.57 264.74 405.21 276.44C409.8 288.13 412.94 300.57 413 313.27C413.06 314.85 412.91 316.44 412.85 318.02C412.74 319.6 412.54 321.18 412.35 322.76L411.94 325.11L411.73 326.28L411.44 327.44L410.86 329.76L410.12 332.04C408.15 338.12 404.67 343.71 400.19 348.3C395.59 352.77 390 356.24 383.92 358.21L381.64 358.95L379.32 359.53L378.16 359.82L376.99 360.03L374.64 360.44C373.06 360.63 371.49 360.83 369.9 360.93C368.32 360.98 366.73 361.13 365.15 361.07C352.46 360.99 340.03 357.83 328.36 353.24C316.68 348.58 305.61 342.49 295.3 335.34C290.15 331.77 285.14 327.97 280.34 323.94C275.55 319.89 270.93 315.65 266.48 311.23C262.06 306.78 257.82 302.16 253.77 297.37C249.74 292.56 245.95 287.56 242.37 282.41C235.22 272.1 229.12 261.04 224.47 249.35C219.87 237.68 216.71 225.25 216.64 212.56C216.58 210.98 216.73 209.39 216.78 207.81C216.88 206.23 217.08 204.65 217.27 203.07L217.68 200.72L217.89 199.55L218.18 198.39L218.76 196.07L219.5 193.79C221.46 187.71 224.93 182.12 229.41 177.52L229.4 177.51ZM230.95 179.06C226.72 183.4 223.43 188.67 221.54 194.48L220.83 196.65L220.28 198.87L220 199.98L219.8 201.11L219.4 203.37C219.22 204.89 219.02 206.41 218.92 207.94C218.87 209.47 218.72 211 218.78 212.54C218.83 224.86 221.9 237.07 226.42 248.57C230.99 260.08 237 271.03 244.06 281.24C247.59 286.35 251.34 291.3 255.32 296.07C259.32 300.82 263.52 305.4 267.89 309.82C272.31 314.19 276.89 318.39 281.64 322.39C286.4 326.37 291.36 330.12 296.47 333.65C306.68 340.71 317.63 346.72 329.14 351.29C340.64 355.81 352.85 358.87 365.17 358.93C366.71 358.99 368.24 358.84 369.77 358.79C371.3 358.69 372.82 358.49 374.34 358.31L376.6 357.91L377.73 357.71L378.84 357.43L381.06 356.88L383.23 356.17C389.04 354.29 394.31 350.99 398.65 346.76C402.87 342.41 406.16 337.14 408.03 331.33L408.74 329.16L409.29 326.94L409.57 325.83L409.77 324.7L410.17 322.44C410.35 320.92 410.54 319.4 410.64 317.87C410.69 316.34 410.84 314.81 410.78 313.27C410.71 300.96 407.63 288.76 403.1 277.28C398.52 265.78 392.5 254.85 385.43 244.66C381.9 239.56 378.14 234.62 374.16 229.86C370.16 225.12 365.95 220.55 361.58 216.14C357.17 211.77 352.6 207.57 347.86 203.56C343.11 199.57 338.16 195.82 333.06 192.29C322.87 185.22 311.94 179.2 300.44 174.62C288.95 170.09 276.76 167.01 264.45 166.94C262.91 166.88 261.38 167.03 259.85 167.08C258.32 167.18 256.8 167.37 255.28 167.55L253.02 167.95L251.89 168.15L250.78 168.43L248.56 168.98L246.39 169.69C240.58 171.56 235.31 174.85 230.96 179.07L230.95 179.06Z" fill="url(#paint6_linear_168_894)"/>
<path d="M230.161 162.77C235.161 157.88 241.231 154.03 247.841 151.81C254.421 149.51 261.381 148.47 268.271 148.44C282.101 148.35 295.661 151.64 308.411 156.52C314.791 158.99 320.991 161.88 327.001 165.11C333.021 168.33 338.841 171.89 344.461 175.76C350.081 179.62 355.531 183.72 360.761 188.08C365.981 192.46 371.011 197.06 375.851 201.85C380.631 206.7 385.231 211.73 389.601 216.95C393.961 222.19 398.051 227.64 401.901 233.26C405.761 238.88 409.321 244.71 412.531 250.73C415.751 256.74 418.641 262.94 421.101 269.32C425.991 282.05 429.281 295.6 429.211 309.43C429.191 316.32 428.151 323.27 425.861 329.86C423.651 336.47 419.811 342.54 414.921 347.55C409.901 352.42 403.821 356.23 397.211 358.41C390.631 360.67 383.691 361.68 376.811 361.67C363.011 361.69 349.511 358.34 336.821 353.41C330.471 350.93 324.301 348.02 318.311 344.79C312.321 341.56 306.521 337.99 300.931 334.12C295.341 330.25 289.911 326.15 284.711 321.78C279.521 317.4 274.521 312.79 269.701 308C264.911 303.18 260.311 298.18 255.941 292.98C251.581 287.77 247.471 282.35 243.611 276.75C239.751 271.16 236.171 265.36 232.951 259.36C229.721 253.37 226.821 247.2 224.341 240.85C219.401 228.18 216.051 214.68 216.061 200.89C216.051 194.01 217.051 187.08 219.301 180.49C221.471 173.88 225.281 167.8 230.151 162.77H230.161ZM232.371 164.97L230.721 166.77L229.891 167.67L229.151 168.64L227.661 170.58L226.341 172.64C226.121 172.98 225.891 173.32 225.691 173.67L225.121 174.75L223.981 176.92L223.021 179.18L222.541 180.31L222.151 181.48C219.991 187.67 218.981 194.28 218.961 200.91C218.871 214.2 222.051 227.42 226.831 239.89C229.241 246.13 232.091 252.22 235.251 258.13C238.411 264.05 241.921 269.78 245.721 275.31C249.521 280.84 253.561 286.22 257.861 291.38C262.181 296.53 266.711 301.49 271.441 306.27C276.221 310.99 281.191 315.52 286.341 319.83C291.501 324.13 296.881 328.16 302.421 331.95C307.951 335.75 313.691 339.25 319.601 342.41C325.511 345.57 331.591 348.41 337.841 350.81C350.301 355.6 363.521 358.79 376.801 358.71C383.421 358.69 390.031 357.69 396.221 355.54L397.391 355.15L398.521 354.67L400.781 353.71L402.951 352.58L404.031 352.01C404.381 351.8 404.721 351.57 405.061 351.36L407.121 350.05L409.061 348.57L410.031 347.83L410.931 347L412.731 345.35L414.371 343.55L415.191 342.65L415.931 341.68L417.411 339.74L418.711 337.67C418.931 337.32 419.151 336.99 419.361 336.64L419.921 335.55L421.041 333.38L421.991 331.12L422.461 329.99L422.851 328.82C424.981 322.63 425.951 316.03 425.941 309.42C425.961 296.17 422.721 283 417.901 270.58C415.471 264.36 412.621 258.3 409.441 252.42C406.271 246.53 402.751 240.83 398.941 235.32C395.131 229.81 391.091 224.47 386.781 219.34C382.461 214.22 377.921 209.29 373.191 204.54C368.441 199.82 363.501 195.28 358.381 190.96C353.251 186.66 347.901 182.62 342.391 178.81C336.881 175 331.181 171.49 325.291 168.32C319.411 165.15 313.351 162.3 307.131 159.88C294.731 155.04 281.561 151.8 268.321 151.81C261.711 151.79 255.121 152.76 248.931 154.88L247.761 155.26L246.631 155.73L244.371 156.68L242.201 157.8L241.111 158.36C240.761 158.57 240.421 158.79 240.071 159.01L238.001 160.31L236.061 161.78L235.091 162.52L234.191 163.34L232.381 164.98L232.371 164.97Z" fill="url(#paint7_linear_168_894)"/>
<path d="M231.02 148.11L233.1 146.18L234.14 145.22L235.26 144.35L237.51 142.61L239.89 141.07L241.08 140.3L242.33 139.63L244.83 138.3L247.43 137.17L248.73 136.61L250.06 136.14C257.16 133.61 264.66 132.38 272.11 132.28C287.06 132.04 301.73 135.45 315.53 140.61C322.44 143.21 329.15 146.29 335.67 149.72C342.19 153.15 348.5 156.95 354.58 161.1C360.65 165.25 366.54 169.67 372.19 174.37C377.83 179.09 383.25 184.05 388.47 189.22C393.63 194.45 398.58 199.89 403.28 205.53C407.97 211.19 412.37 217.08 416.51 223.16C420.65 229.24 424.47 235.54 427.91 242.05C431.35 248.56 434.44 255.26 437.05 262.17C439.67 269.07 441.78 276.17 443.26 283.43C444.73 290.69 445.54 298.11 445.41 305.57C445.31 313.02 444.09 320.52 441.56 327.62L441.09 328.95L440.53 330.25L439.4 332.85L438.07 335.35L437.4 336.6L436.63 337.79L435.09 340.17L433.35 342.42L432.48 343.54L431.52 344.58L429.59 346.66L427.49 348.57L426.44 349.52L425.31 350.38L423.05 352.09L420.66 353.6L419.46 354.35L418.21 355L415.7 356.3L413.1 357.4L411.8 357.95L410.47 358.4C403.37 360.85 395.9 361.99 388.49 362.01C373.62 362.1 359.08 358.53 345.41 353.28C338.56 350.64 331.91 347.54 325.46 344.07C319 340.62 312.76 336.78 306.73 332.63C300.71 328.48 294.86 324.07 289.27 319.37C283.68 314.66 278.3 309.7 273.13 304.55C267.98 299.36 263.04 293.97 258.34 288.38C253.65 282.77 249.26 276.92 245.12 270.89C236.82 258.86 229.75 245.92 224.43 232.25C219.15 218.6 215.6 204.05 215.68 189.18C215.7 181.77 216.84 174.3 219.28 167.2L219.73 165.87L220.28 164.57L221.38 161.97L222.68 159.46L223.33 158.21L224.08 157.01L225.59 154.62L227.3 152.36L228.16 151.23L229.11 150.18L231.02 148.08V148.11ZM233.71 150.8L231.93 152.72L231.04 153.68L230.24 154.71L228.63 156.78L227.21 158.98L226.5 160.08L225.88 161.24L224.64 163.56L223.59 165.97L223.06 167.18L222.62 168.43C220.25 175.06 219.07 182.14 218.98 189.26C218.74 203.54 222.02 217.8 227.06 231.27C229.6 238.01 232.61 244.58 235.97 250.97C239.33 257.36 243.06 263.56 247.14 269.53C251.22 275.5 255.56 281.29 260.19 286.85C264.83 292.39 269.72 297.74 274.81 302.88C279.96 307.96 285.32 312.83 290.87 317.46C296.43 322.08 302.24 326.4 308.21 330.47C314.18 334.54 320.36 338.29 326.75 341.66C333.13 345.03 339.69 348.05 346.43 350.6C359.88 355.67 374.15 358.94 388.42 358.71C395.54 358.62 402.62 357.44 409.25 355.08L410.5 354.65L411.71 354.12L414.13 353.07L416.45 351.83L417.61 351.21L418.71 350.5L420.91 349.08L422.98 347.47L424.01 346.67L424.97 345.78L426.89 344L428.64 342.06L429.52 341.09L430.31 340.05L431.89 337.97L433.28 335.76L433.98 334.65L434.58 333.49L435.79 331.17L436.81 328.75L437.32 327.54L437.74 326.29C440.02 319.67 441.12 312.61 441.13 305.53C441.22 291.33 437.78 277.2 432.65 263.86C430.08 257.18 427.04 250.67 423.64 244.34C420.26 238.01 416.49 231.88 412.41 225.96C408.33 220.04 404 214.3 399.37 208.79C394.73 203.29 389.86 198 384.78 192.9C379.67 187.83 374.37 182.97 368.86 178.34C363.34 173.73 357.59 169.41 351.67 165.35C339.85 157.19 327.16 150.27 313.82 145.07C300.5 139.91 286.36 136.49 272.17 136.57C265.09 136.58 258.04 137.67 251.41 139.95L250.16 140.37L248.95 140.88L246.53 141.9L244.21 143.11L243.05 143.71L241.94 144.41L239.73 145.8L237.65 147.38L236.61 148.17L235.64 149.05L233.7 150.8H233.71Z" fill="url(#paint8_linear_168_894)"/>
<path d="M231.96 133.53L234.19 131.46L235.31 130.42L236.511 129.48L238.91 127.61L241.46 125.94L242.74 125.11L244.071 124.38L246.75 122.94C247.67 122.51 248.6 122.12 249.52 121.71L250.91 121.1C251.381 120.9 251.86 120.76 252.33 120.58C259.93 117.81 267.96 116.4 275.96 116.23C292 115.82 307.79 119.31 322.65 124.73C330.08 127.47 337.31 130.73 344.33 134.37C351.35 138.01 358.15 142.06 364.68 146.49C371.21 150.93 377.54 155.65 383.61 160.7C389.66 165.76 395.49 171.08 401.1 176.62C406.62 182.25 411.92 188.09 416.96 194.16C421.98 200.24 426.68 206.59 431.09 213.13C439.92 226.2 447.381 240.26 452.921 255.09C455.691 262.51 457.89 270.16 459.41 277.96C460.92 285.76 461.72 293.74 461.5 301.75C461.32 309.75 459.911 317.78 457.141 325.38C456.971 325.85 456.82 326.34 456.62 326.8L456.01 328.19C455.6 329.11 455.2 330.05 454.78 330.96L453.34 333.64L452.61 334.97L451.78 336.25L450.11 338.8L448.24 341.2L447.3 342.4L446.26 343.52L444.19 345.74L441.93 347.78L440.8 348.8L439.59 349.72L437.171 351.55L434.61 353.17L433.33 353.98L431.99 354.68L429.3 356.07C428.38 356.48 427.45 356.86 426.52 357.25L425.13 357.83C424.66 358.02 424.18 358.16 423.71 358.32C416.12 360.95 408.13 362.22 400.19 362.27C384.28 362.42 368.71 358.63 354.07 353.06C339.41 347.43 325.54 339.91 312.66 331.04C306.22 326.6 299.961 321.89 293.981 316.86C288.011 311.82 282.261 306.51 276.731 300.99C271.221 295.44 265.941 289.68 260.921 283.69C255.911 277.69 251.22 271.43 246.81 264.97C237.94 252.09 230.38 238.27 224.72 223.63C221.89 216.32 219.55 208.79 217.92 201.08C216.29 193.38 215.35 185.48 215.44 177.54C215.49 169.6 216.76 161.62 219.39 154.02C219.56 153.55 219.69 153.06 219.88 152.6L220.47 151.21C220.86 150.28 221.24 149.35 221.65 148.43L223.04 145.74L223.741 144.4L224.55 143.12L226.17 140.56L228 138.14L228.92 136.93L229.94 135.8L231.981 133.54L231.96 133.53ZM234.96 136.54L233.05 138.59L232.09 139.61L231.231 140.71L229.5 142.92L227.961 145.27L227.19 146.44L226.52 147.67L225.18 150.14L224.04 152.72L223.47 154.01C223.28 154.44 223.15 154.9 222.99 155.34C220.411 162.42 219.06 169.99 218.89 177.62C218.48 192.91 221.84 208.24 227.12 222.72C229.79 229.97 232.971 237.03 236.541 243.9C240.101 250.77 244.071 257.44 248.421 263.86C252.781 270.27 257.421 276.49 262.381 282.45C267.351 288.4 272.581 294.13 278.041 299.65C283.581 305.09 289.331 310.3 295.291 315.24C301.271 320.18 307.501 324.79 313.921 329.13C326.751 337.8 340.53 345.1 354.99 350.5C362.22 353.2 369.66 355.33 377.21 356.8C384.76 358.26 392.43 359.02 400.07 358.81C407.701 358.64 415.27 357.28 422.35 354.7C422.79 354.54 423.24 354.4 423.68 354.22L424.97 353.65L427.55 352.51L430.02 351.17L431.25 350.5L432.421 349.73L434.77 348.19L436.98 346.46L438.08 345.6L439.1 344.64L441.15 342.73L443.02 340.65L443.96 339.61L444.8 338.5L446.48 336.27L447.97 333.9L448.71 332.72L449.36 331.48L450.65 329L451.74 326.42L452.28 325.13C452.46 324.7 452.58 324.24 452.74 323.8C455.18 316.73 456.4 309.2 456.43 301.64C456.58 286.47 452.93 271.37 447.49 257.11C442 242.83 434.64 229.23 425.93 216.59C421.58 210.26 416.95 204.12 411.99 198.24C407.03 192.37 401.81 186.72 396.38 181.28C390.92 175.86 385.26 170.67 379.37 165.73C373.47 160.8 367.32 156.2 360.98 151.87C348.34 143.17 334.79 135.75 320.52 130.24C306.29 124.74 291.18 121.1 276.02 121.22C268.45 121.26 260.931 122.48 253.851 124.92C253.411 125.07 252.96 125.2 252.52 125.38L251.231 125.92L248.65 127.01L246.171 128.3L244.93 128.95L243.75 129.7L241.38 131.19L239.15 132.88L238.041 133.72L237 134.66L234.921 136.53L234.96 136.54Z" fill="url(#paint9_linear_168_894)"/>
<path d="M232.99 119.05L235.35 116.83L236.53 115.72L237.8 114.71L240.35 112.7L243.05 110.91L244.41 110.02C244.87 109.74 245.35 109.5 245.82 109.23L248.671 107.68C249.641 107.21 250.63 106.79 251.62 106.34C252.6 105.9 253.59 105.44 254.61 105.11C262.69 102.1 271.25 100.51 279.79 100.24C296.91 99.64 313.811 103.22 329.73 108.87C337.69 111.74 345.441 115.17 352.951 119.02C360.471 122.87 367.76 127.16 374.76 131.86C381.751 136.58 388.561 141.57 395.04 146.97C401.501 152.38 407.721 158.07 413.701 164C419.6 170.01 425.26 176.26 430.62 182.75C435.98 189.25 440.99 196.04 445.69 203.04C450.39 210.03 454.7 217.3 458.55 224.81C462.41 232.32 465.85 240.05 468.73 248C471.63 255.95 473.91 264.14 475.46 272.49C477 280.84 477.78 289.37 477.47 297.91C477.201 306.45 475.61 315.01 472.59 323.09C472.26 324.11 471.8 325.1 471.36 326.08C470.91 327.06 470.49 328.06 470.02 329.03L468.47 331.88C468.21 332.35 467.96 332.83 467.68 333.29L466.79 334.65L465 337.35L462.99 339.9L461.98 341.17L460.87 342.35L458.65 344.71L456.24 346.87L455.03 347.95L453.74 348.93L451.16 350.87L448.43 352.59L447.06 353.45C446.6 353.72 446.111 353.95 445.641 354.2L442.78 355.68C441.81 356.13 440.81 356.52 439.83 356.94C438.84 357.36 437.86 357.79 436.84 358.09C428.76 360.89 420.27 362.27 411.83 362.34C394.9 362.54 378.331 358.54 362.76 352.61C347.16 346.64 332.43 338.59 318.72 329.17C311.86 324.46 305.2 319.46 298.83 314.1C292.47 308.74 286.351 303.09 280.48 297.21C268.78 285.4 258.041 272.62 248.671 258.87C239.231 245.18 231.17 230.48 225.17 214.89C222.15 207.11 219.68 199.1 217.94 190.89C216.22 182.69 215.22 174.29 215.33 165.85C215.41 157.41 216.79 148.92 219.59 140.84C219.9 139.82 220.33 138.83 220.74 137.85C221.16 136.87 221.56 135.87 222 134.9L223.48 132.04C223.73 131.57 223.96 131.08 224.23 130.62L225.09 129.25L226.82 126.52L228.76 123.94L229.74 122.65L230.82 121.44L232.98 119.03L232.99 119.05ZM236.12 122.19L234.08 124.37L233.06 125.46L232.13 126.63L230.28 128.98L228.62 131.48L227.79 132.73C227.53 133.16 227.3 133.6 227.06 134.04L225.62 136.68C225.18 137.58 224.79 138.51 224.37 139.42C223.96 140.34 223.53 141.25 223.22 142.21C220.41 149.75 218.88 157.83 218.62 165.98C218.03 182.32 221.46 198.73 226.98 214.25C229.78 222.01 233.13 229.59 236.9 236.95C240.66 244.32 244.87 251.46 249.49 258.34C254.12 265.21 259.03 271.89 264.33 278.26C269.65 284.62 275.25 290.73 281.08 296.62C287 302.43 293.14 307.99 299.53 313.27C305.92 318.54 312.6 323.46 319.46 328.07C326.33 332.69 333.46 336.91 340.82 340.68C348.171 344.46 355.74 347.82 363.49 350.63C371.24 353.45 379.21 355.67 387.29 357.17C395.37 358.66 403.581 359.4 411.73 359.1C419.88 358.84 427.96 357.31 435.5 354.49C436.46 354.18 437.37 353.75 438.29 353.34C439.201 352.92 440.13 352.53 441.03 352.09L443.671 350.64C444.111 350.4 444.561 350.17 444.98 349.91L446.23 349.08L448.73 347.42L451.08 345.56L452.25 344.63L453.34 343.6L455.52 341.56L457.51 339.33L458.51 338.22L459.41 337.03L461.201 334.65L462.79 332.12L463.58 330.86C463.83 330.43 464.04 329.98 464.27 329.54L465.641 326.89C466.051 325.99 466.42 325.06 466.81 324.14C467.2 323.22 467.6 322.31 467.88 321.35C470.48 313.81 471.8 305.8 471.86 297.75C472.04 281.6 468.19 265.52 462.41 250.35C456.58 235.14 448.71 220.7 439.451 207.24C434.831 200.5 429.91 193.96 424.65 187.7C419.38 181.45 413.83 175.43 408.04 169.65C396.421 158.14 383.85 147.58 370.35 138.38C356.921 129.11 342.5 121.21 327.31 115.36C319.73 112.42 311.94 110.01 304 108.33C296.07 106.66 287.99 105.7 279.93 105.8C271.87 105.87 263.87 107.18 256.33 109.79C255.37 110.07 254.46 110.47 253.54 110.86C252.63 111.25 251.7 111.62 250.79 112.03L248.141 113.4C247.701 113.63 247.25 113.85 246.82 114.09L245.56 114.88L243.04 116.47L240.66 118.26L239.47 119.16L238.36 120.16L236.13 122.15L236.12 122.19Z" fill="url(#paint10_linear_168_894)"/>
<path d="M453.379 450.96C437.129 450.96 419.609 448.56 401.099 443.71C344.559 428.89 285.649 392.94 235.199 342.5C184.759 292.06 148.809 233.14 133.989 176.6C119.139 119.97 127.259 72.49 156.839 42.91C186.419 13.33 233.899 5.21004 290.529 20.06C347.069 34.88 405.979 70.83 456.429 121.27C506.869 171.71 542.819 230.63 557.639 287.17C572.49 343.8 564.369 391.28 534.789 420.86C514.869 440.78 486.839 450.96 453.369 450.96H453.379ZM238.349 13.92C205.859 13.92 177.679 23.48 157.549 43.61C128.229 72.93 120.199 120.07 134.959 176.34C149.739 232.71 185.589 291.46 235.909 341.78C305.249 411.12 387.959 449.82 453.289 449.83C485.779 449.83 513.96 440.27 534.09 420.14C563.41 390.82 571.439 343.68 556.679 287.41C541.899 231.04 506.049 172.29 455.729 121.97C386.389 52.64 303.679 13.92 238.349 13.92Z" fill="url(#paint11_linear_168_894)"/>
<path d="M171.9 57.9601L175.51 54.6401L177.32 52.9801C177.96 52.4701 178.61 51.9801 179.26 51.4801L183.15 48.4901C184.51 47.5801 185.89 46.7101 187.27 45.8201L189.33 44.4901C190.03 44.0701 190.77 43.7101 191.48 43.3201L195.81 41.0201C197.28 40.3201 198.8 39.7001 200.29 39.0401L202.54 38.0601C203.28 37.7201 204.07 37.5001 204.84 37.2201L209.47 35.6201C211.01 35.0901 212.61 34.7501 214.18 34.3001L216.54 33.6701L217.72 33.3501L218.92 33.1201L223.72 32.1901C225.31 31.8401 226.93 31.6601 228.55 31.4501L233.4 30.8301L238.27 30.5001C239.89 30.4201 241.52 30.2301 243.14 30.2601C256.16 29.9401 269.16 31.2701 281.9 33.7701C294.64 36.2701 307.13 39.9501 319.29 44.4601C331.45 48.9801 343.28 54.3501 354.76 60.3701C366.25 66.3701 377.35 73.1001 388.08 80.3701C398.8 87.6401 409.21 95.3801 419.17 103.67C429.12 111.97 438.69 120.71 447.89 129.83C457.01 139.04 465.75 148.61 474.05 158.55C482.34 168.51 490.08 178.92 497.35 189.64C504.61 200.37 511.35 211.47 517.35 222.96C523.37 234.44 528.74 246.27 533.26 258.43C537.78 270.59 541.45 283.08 543.95 295.82C546.45 308.56 547.78 321.56 547.46 334.58C547.49 336.21 547.3 337.83 547.22 339.45L546.89 344.32L546.27 349.17C546.06 350.79 545.89 352.41 545.53 354L544.6 358.8L544.36 360L544.04 361.18L543.41 363.54C542.96 365.11 542.62 366.71 542.09 368.25L540.49 372.88C540.21 373.64 539.99 374.44 539.65 375.18L538.67 377.43C538.01 378.92 537.39 380.44 536.69 381.91L534.39 386.24C534 386.96 533.64 387.69 533.22 388.39L531.89 390.45C531 391.82 530.13 393.21 529.22 394.57L526.23 398.46C525.73 399.1 525.24 399.76 524.73 400.4L523.07 402.21L519.75 405.82L516.13 409.14L514.32 410.8C513.68 411.31 513.03 411.8 512.38 412.3L508.49 415.29C507.13 416.2 505.74 417.06 504.37 417.95L502.31 419.27C501.61 419.69 500.87 420.05 500.16 420.44L495.83 422.74C494.36 423.44 492.84 424.05 491.35 424.71L489.1 425.68C488.36 426.02 487.57 426.23 486.8 426.52L482.17 428.12C480.63 428.65 479.03 428.99 477.46 429.44L475.1 430.07L473.92 430.38L472.72 430.61L467.92 431.54C466.33 431.89 464.71 432.07 463.09 432.27L458.24 432.89L453.37 433.22C451.75 433.3 450.12 433.49 448.5 433.46C435.49 433.78 422.49 432.43 409.76 429.93C397.02 427.42 384.54 423.74 372.39 419.22C360.24 414.69 348.42 409.32 336.95 403.3C325.46 397.3 314.38 390.55 303.66 383.29C292.95 376.01 282.55 368.27 272.6 359.98C262.66 351.68 253.1 342.93 243.91 333.82C234.79 324.63 226.05 315.06 217.74 305.13C209.45 295.18 201.7 284.78 194.43 274.07C187.16 263.35 180.42 252.26 174.42 240.78C168.4 229.31 163.02 217.49 158.5 205.34C153.98 193.19 150.3 180.71 147.79 167.97C145.28 155.24 143.94 142.24 144.26 129.23C144.23 127.6 144.42 125.98 144.5 124.36L144.83 119.49L145.45 114.64C145.66 113.02 145.83 111.4 146.18 109.81L147.11 105.01L147.34 103.81L147.65 102.63L148.28 100.27C148.72 98.7001 149.06 97.1001 149.6 95.5601L151.2 90.9301C151.48 90.1701 151.7 89.3701 152.04 88.6301L153.01 86.3801C153.67 84.8901 154.28 83.3701 154.98 81.9001L157.28 77.5701C157.67 76.8501 158.03 76.1201 158.45 75.4201L159.77 73.3601C160.66 71.9901 161.53 70.6001 162.43 69.2401L165.42 65.3501C165.92 64.7001 166.41 64.0501 166.92 63.4101L168.58 61.6001L171.9 57.9801V57.9601ZM173.44 59.5101L170.21 63.0301L168.59 64.7901C168.09 65.4101 167.61 66.0501 167.12 66.6801L164.2 70.4701C163.31 71.7901 162.47 73.1501 161.6 74.4901L160.31 76.5001C159.9 77.1801 159.55 77.9001 159.17 78.6001L156.92 82.8201C156.24 84.2601 155.64 85.7401 154.99 87.2001L154.04 89.4001C153.71 90.1301 153.5 90.9001 153.22 91.6501L151.65 96.1801C151.13 97.6901 150.79 99.2601 150.36 100.8L149.74 103.12L149.43 104.28L149.2 105.46L148.28 110.17C147.93 111.73 147.76 113.33 147.56 114.91L146.95 119.67L146.62 124.47C146.54 126.07 146.35 127.66 146.38 129.27C146.06 142.09 147.38 154.94 149.85 167.55C152.33 180.16 155.97 192.54 160.45 204.6C164.93 216.66 170.26 228.41 176.24 239.81C182.2 251.23 188.89 262.26 196.11 272.92C203.34 283.58 211.04 293.93 219.28 303.84C227.54 313.73 236.23 323.26 245.3 332.41C254.46 341.48 263.98 350.17 273.87 358.43C283.77 366.68 294.13 374.37 304.79 381.6C315.46 388.82 326.49 395.52 337.9 401.47C349.3 407.45 361.05 412.78 373.11 417.26C385.17 421.74 397.55 425.38 410.16 427.86C422.76 430.33 435.61 431.65 448.44 431.33C450.05 431.36 451.64 431.17 453.24 431.09L458.04 430.76L462.8 430.15C464.39 429.95 465.98 429.77 467.54 429.43L472.25 428.51L473.43 428.28L474.59 427.97L476.91 427.35C478.45 426.91 480.02 426.58 481.53 426.06L486.06 424.49C486.81 424.21 487.58 424 488.31 423.67L490.51 422.72C491.97 422.07 493.45 421.47 494.89 420.79L499.11 418.54C499.81 418.16 500.53 417.81 501.21 417.4L503.22 416.11C504.56 415.24 505.91 414.4 507.24 413.51L511.03 410.59C511.66 410.1 512.3 409.62 512.92 409.12L514.68 407.5L518.2 404.27L521.43 400.74L523.05 398.98C523.55 398.36 524.03 397.72 524.51 397.09L527.43 393.3C528.31 391.97 529.16 390.62 530.03 389.28L531.32 387.27C531.73 386.59 532.08 385.87 532.46 385.17L534.71 380.94C535.39 379.5 535.99 378.02 536.64 376.56L537.59 374.36C537.92 373.63 538.13 372.86 538.41 372.11L539.98 367.58C540.5 366.07 540.83 364.5 541.27 362.96L541.89 360.64L542.2 359.48L542.43 358.3L543.34 353.59C543.69 352.03 543.86 350.43 544.06 348.85L544.67 344.09L544.99 339.3C545.07 337.7 545.26 336.11 545.23 334.5C545.54 321.68 544.22 308.84 541.74 296.24C539.25 283.64 535.61 271.26 531.12 259.21C526.63 247.16 521.29 235.42 515.31 224.02C509.35 212.61 502.65 201.59 495.42 190.93C488.18 180.28 480.48 169.94 472.24 160.04C463.98 150.16 455.28 140.65 446.21 131.5C437.06 122.43 427.55 113.73 417.67 105.47C407.78 97.2201 397.43 89.5201 386.78 82.2901C376.12 75.0701 365.1 68.3701 353.69 62.4001C342.29 56.4201 330.56 51.0801 318.5 46.5901C306.45 42.1001 294.08 38.4601 281.47 35.9701C268.87 33.4901 256.03 32.1701 243.21 32.4801C241.61 32.4501 240.01 32.6401 238.41 32.7201L233.62 33.0401L228.86 33.6501C227.27 33.8501 225.68 34.0201 224.12 34.3701L219.41 35.2801L218.23 35.5101L217.07 35.8201L214.75 36.4401C213.21 36.8801 211.64 37.2101 210.13 37.7301L205.6 39.3001C204.85 39.5801 204.08 39.7801 203.35 40.1201L201.15 41.0701C199.69 41.7201 198.21 42.3101 196.77 43.0001L192.54 45.2501C191.84 45.6301 191.12 45.9801 190.44 46.3901L188.43 47.6801C187.09 48.5501 185.74 49.3901 184.41 50.2801L180.62 53.2001C179.99 53.6901 179.35 54.1601 178.73 54.6601L176.97 56.2801L173.44 59.5101Z" fill="url(#paint12_linear_168_894)"/>
<path d="M187.04 73.1L190.35 70.05L192.01 68.53L193.78 67.15L197.34 64.4C198.58 63.56 199.85 62.77 201.11 61.95L203 60.73C203.64 60.35 204.32 60.01 204.97 59.65L208.94 57.53C210.29 56.89 211.68 56.32 213.05 55.71C214.42 55.11 215.79 54.49 217.22 54.04L221.46 52.57C222.87 52.08 224.34 51.77 225.78 51.35L227.95 50.77L229.03 50.48L230.13 50.26L234.53 49.4C235.99 49.07 237.47 48.91 238.95 48.72L243.39 48.15L247.85 47.84C249.34 47.76 250.82 47.58 252.31 47.61C264.22 47.3 276.12 48.5 287.76 50.77C299.41 53.04 310.83 56.38 321.94 60.49C344.14 68.78 365.19 79.97 384.76 93.24C394.55 99.87 404.05 106.93 413.14 114.5C422.22 122.07 430.96 130.05 439.36 138.36C447.67 146.77 455.64 155.51 463.21 164.59C470.77 173.68 477.82 183.19 484.45 192.98C497.71 212.55 508.89 233.6 517.17 255.8C521.28 266.9 524.63 278.32 526.91 289.96C529.18 301.6 530.39 313.49 530.09 325.4C530.12 326.89 529.94 328.37 529.86 329.86L529.55 334.32L528.98 338.76C528.79 340.24 528.63 341.72 528.3 343.18L527.44 347.57L527.22 348.67L526.93 349.75L526.35 351.92C525.94 353.36 525.63 354.82 525.14 356.23L523.67 360.47C523.22 361.9 522.61 363.26 522 364.64C521.39 366.01 520.83 367.4 520.18 368.75L518.06 372.72C517.7 373.38 517.37 374.05 516.99 374.69L515.77 376.58C514.95 377.84 514.16 379.11 513.32 380.35L510.57 383.91L509.19 385.68L507.67 387.34L504.62 390.65L501.3 393.69L499.64 395.21L497.86 396.59L494.29 399.33C493.04 400.16 491.77 400.96 490.51 401.77L488.62 402.98C487.98 403.36 487.3 403.69 486.64 404.05L482.67 406.15C481.32 406.79 479.93 407.35 478.56 407.96C477.19 408.56 475.82 409.17 474.39 409.62L470.15 411.08C468.74 411.57 467.27 411.88 465.84 412.28L463.68 412.85L462.6 413.14L461.5 413.35L457.11 414.2C455.65 414.52 454.17 414.68 452.69 414.87L448.26 415.43L443.81 415.73C442.32 415.8 440.84 415.98 439.35 415.95C427.46 416.23 415.58 414.99 403.96 412.69C392.33 410.39 380.95 407.02 369.87 402.89C347.72 394.57 326.73 383.36 307.22 370.07C297.46 363.43 287.99 356.36 278.93 348.79C269.88 341.21 261.17 333.24 252.8 324.92C244.49 316.54 236.52 307.83 228.94 298.78C221.38 289.72 214.32 280.24 207.68 270.48C194.4 250.96 183.2 229.97 174.89 207.82C170.75 196.75 167.38 185.36 165.07 173.74C162.77 162.12 161.52 150.26 161.8 138.36C161.77 136.87 161.94 135.39 162.01 133.91L162.3 129.46L162.86 125.03C163.05 123.55 163.2 122.07 163.53 120.61L164.38 116.22L164.59 115.12L164.88 114.04L165.45 111.88C165.86 110.44 166.16 108.98 166.65 107.57L168.11 103.33C168.55 101.9 169.17 100.53 169.76 99.16C170.36 97.79 170.92 96.4 171.56 95.05L173.66 91.08C174.02 90.42 174.35 89.75 174.73 89.1L175.94 87.21C176.75 85.95 177.55 84.68 178.38 83.43L181.12 79.86L182.5 78.08L184.02 76.42L187.06 73.1H187.04ZM189.24 75.31L186.31 78.49L184.85 80.08L183.52 81.79L180.88 85.21C180.08 86.41 179.31 87.63 178.52 88.84L177.35 90.66C176.98 91.28 176.66 91.93 176.32 92.56L174.28 96.38C173.66 97.68 173.11 99.02 172.53 100.34C171.95 101.66 171.35 102.98 170.92 104.36L169.49 108.46C169.01 109.83 168.71 111.25 168.31 112.64L167.75 114.74L167.47 115.79L167.26 116.86L166.42 121.13C166.1 122.55 165.94 123.99 165.76 125.43L165.2 129.75L164.9 134.1C164.82 135.55 164.65 137 164.68 138.45C164.37 150.09 165.55 161.76 167.78 173.21C170.02 184.67 173.31 195.93 177.37 206.9C185.55 228.83 196.63 249.66 209.78 269.06C216.35 278.76 223.35 288.18 230.85 297.19C238.36 306.19 246.27 314.86 254.52 323.2C262.86 331.44 271.53 339.35 280.54 346.85C289.56 354.34 298.98 361.34 308.68 367.91C328.07 381.05 348.92 392.12 370.84 400.29C381.81 404.35 393.06 407.65 404.52 409.89C415.97 412.13 427.64 413.31 439.27 413.01C440.73 413.04 442.17 412.86 443.62 412.79L447.97 412.49L452.29 411.93C453.73 411.74 455.17 411.59 456.59 411.27L460.86 410.43L461.93 410.22L462.98 409.94L465.08 409.38C466.47 408.98 467.89 408.68 469.26 408.21L473.36 406.79C474.74 406.36 476.06 405.76 477.38 405.18C478.7 404.59 480.04 404.05 481.34 403.43L485.16 401.39C485.79 401.04 486.44 400.73 487.06 400.36L488.88 399.19C490.09 398.4 491.31 397.64 492.51 396.84L495.93 394.2L497.64 392.87L499.23 391.41L502.41 388.49L505.33 385.3L506.79 383.71L508.11 382L510.74 378.57C511.54 377.37 512.3 376.15 513.08 374.94L514.25 373.12C514.62 372.5 514.93 371.85 515.28 371.22L517.31 367.4C517.93 366.1 518.47 364.76 519.05 363.44C519.63 362.12 520.22 360.8 520.65 359.42L522.06 355.32C522.53 353.95 522.829 352.53 523.22 351.14L523.78 349.04L524.06 347.99L524.27 346.92L525.09 342.65C525.4 341.24 525.56 339.79 525.74 338.35L526.29 334.04L526.58 329.7C526.65 328.25 526.82 326.81 526.79 325.35C527.06 313.73 525.85 302.08 523.59 290.65C521.32 279.21 518.01 267.98 513.92 257.04C505.71 235.17 494.61 214.38 481.44 195.05C474.86 185.38 467.85 175.99 460.35 167C452.84 158.03 444.92 149.39 436.67 141.08C428.36 132.83 419.72 124.93 410.74 117.42C401.75 109.92 392.36 102.92 382.68 96.34C363.34 83.18 342.55 72.09 320.68 63.89C309.74 59.8 298.52 56.48 287.09 54.21C275.66 51.94 264.02 50.73 252.4 50.99C250.95 50.96 249.5 51.13 248.05 51.2L243.71 51.49L239.4 52.03C237.96 52.21 236.52 52.36 235.1 52.68L230.84 53.5L229.77 53.71L228.72 53.99L226.62 54.55C225.23 54.94 223.81 55.24 222.44 55.71L218.34 57.12C216.96 57.55 215.64 58.14 214.32 58.72C213 59.3 211.66 59.84 210.36 60.46L206.54 62.49C205.91 62.83 205.26 63.15 204.64 63.52L202.82 64.69C201.61 65.47 200.39 66.23 199.19 67.03L195.76 69.66L194.05 70.98L192.46 72.44L189.27 75.36L189.24 75.31Z" fill="url(#paint13_linear_168_894)"/>
<path d="M202.259 88.3302L205.259 85.5601L206.759 84.1701L208.369 82.9102L211.599 80.4102C212.729 79.6502 213.879 78.9202 215.019 78.1802L216.739 77.0702C217.319 76.7201 217.929 76.4201 218.529 76.0901L222.129 74.1602C223.359 73.5702 224.609 73.0602 225.859 72.5002C227.099 71.9502 228.339 71.3902 229.639 70.9802L233.489 69.6301C234.769 69.1801 236.099 68.8901 237.399 68.5201L239.359 67.9901L240.339 67.7202L241.339 67.5201L245.329 66.7302C246.649 66.4302 247.999 66.2801 249.339 66.1001L253.359 65.5702L257.399 65.2801C258.749 65.2101 260.099 65.0401 261.439 65.0601C272.239 64.7501 283.019 65.8202 293.569 67.8602C304.129 69.9002 314.459 72.9001 324.529 76.6001C334.589 80.3101 344.369 84.7202 353.869 89.6602C363.369 94.5902 372.559 100.12 381.419 106.11C390.269 112.11 398.859 118.5 407.079 125.34C415.289 132.19 423.189 139.4 430.779 146.92C438.289 154.53 445.489 162.44 452.319 170.65C459.149 178.88 465.519 187.48 471.509 196.33C483.489 214.04 493.589 233.08 501.059 253.18C504.779 263.23 507.769 273.57 509.819 284.13C511.849 294.68 512.929 305.45 512.619 316.25C512.639 317.6 512.479 318.95 512.399 320.29L512.109 324.33L511.579 328.35C511.399 329.69 511.249 331.04 510.949 332.36L510.159 336.35L509.959 337.35L509.689 338.33L509.159 340.29C508.789 341.59 508.499 342.92 508.049 344.2L506.699 348.05C506.289 349.35 505.729 350.59 505.179 351.83C504.629 353.07 504.109 354.33 503.519 355.56L501.589 359.16C501.259 359.76 500.959 360.37 500.609 360.95L499.499 362.67C498.759 363.81 498.029 364.96 497.269 366.09L494.769 369.32L493.509 370.93L492.119 372.43L489.349 375.43L486.329 378.18L484.819 379.55L483.199 380.8L479.949 383.28C478.819 384.03 477.659 384.75 476.519 385.49L474.799 386.59C474.219 386.94 473.599 387.23 473.009 387.56L469.399 389.46C468.169 390.04 466.909 390.54 465.669 391.09C464.429 391.63 463.179 392.18 461.889 392.58L458.049 393.89C456.769 394.33 455.439 394.61 454.139 394.97L452.179 395.49L451.199 395.75L450.209 395.94L446.229 396.7C444.909 396.99 443.569 397.13 442.229 397.3L438.219 397.8L434.189 398.06C432.849 398.12 431.499 398.28 430.159 398.25C419.399 398.48 408.679 397.33 398.179 395.23C387.679 393.13 377.409 390.05 367.409 386.32C347.419 378.8 328.489 368.66 310.889 356.66C302.089 350.66 293.539 344.28 285.379 337.44C277.219 330.6 269.369 323.39 261.819 315.89C254.319 308.33 247.129 300.47 240.299 292.3C233.479 284.12 227.109 275.57 221.129 266.76C209.129 249.17 198.959 230.26 191.419 210.28C187.659 200.29 184.599 190.02 182.489 179.52C180.389 169.03 179.239 158.31 179.459 147.55C179.429 146.21 179.579 144.86 179.649 143.52L179.909 139.49L180.409 135.48C180.579 134.14 180.719 132.8 180.999 131.48L181.759 127.5L181.949 126.51L182.209 125.53L182.729 123.57C183.089 122.27 183.369 120.94 183.809 119.66L185.119 115.82C185.519 114.52 186.069 113.28 186.609 112.04C187.149 110.8 187.659 109.54 188.239 108.31L190.139 104.7C190.459 104.1 190.759 103.49 191.109 102.91L192.209 101.19C192.949 100.05 193.659 98.8902 194.419 97.7602L196.899 94.5102L198.149 92.8902L199.519 91.3801L202.269 88.3602L202.259 88.3302ZM204.959 91.0201L202.329 93.8602L201.009 95.2801L199.819 96.8101L197.439 99.8702L195.319 103.12L194.259 104.75C193.929 105.3 193.639 105.89 193.329 106.45L191.489 109.87C190.929 111.04 190.439 112.24 189.909 113.42C189.379 114.6 188.849 115.78 188.459 117.02C184.909 126.77 183.039 137.17 182.789 147.62C182.489 158.08 183.529 168.59 185.519 178.91C187.509 189.23 190.449 199.38 194.089 209.27C197.739 219.16 202.079 228.8 206.949 238.16C211.809 247.53 217.269 256.6 223.179 265.35C229.109 274.09 235.419 282.59 242.189 290.71C248.959 298.83 256.099 306.64 263.529 314.15C271.059 321.58 278.879 328.7 286.999 335.46C295.129 342.21 303.629 348.51 312.379 354.42C329.869 366.25 348.659 376.21 368.429 383.56C378.309 387.22 388.459 390.15 398.779 392.15C409.099 394.14 419.599 395.18 430.059 394.88C440.519 394.63 450.909 392.76 460.659 389.21C461.899 388.82 463.079 388.28 464.259 387.76C465.439 387.23 466.639 386.74 467.809 386.18L471.229 384.34C471.799 384.03 472.379 383.74 472.929 383.41L474.559 382.35L477.809 380.23L480.869 377.86L482.399 376.67L483.819 375.36L486.659 372.73L489.259 369.87L490.559 368.44L491.739 366.91L494.089 363.84L496.179 360.58L497.219 358.95C497.549 358.39 497.829 357.81 498.139 357.24L499.949 353.81C500.499 352.64 500.979 351.44 501.499 350.26C502.009 349.07 502.539 347.89 502.919 346.65L504.179 342.98C504.599 341.76 504.859 340.48 505.209 339.23L505.699 337.35L505.949 336.41L506.129 335.45L506.859 331.63C507.139 330.36 507.269 329.07 507.429 327.78L507.909 323.91L508.159 320.01C508.219 318.71 508.369 317.42 508.339 316.11C508.559 305.69 507.449 295.23 505.389 284.97C503.329 274.7 500.319 264.63 496.649 254.79C489.249 235.14 479.259 216.45 467.399 199.07C461.469 190.38 455.159 181.93 448.409 173.86C441.639 165.79 434.519 158.03 427.089 150.56C419.609 143.14 411.839 136.03 403.759 129.28C395.669 122.54 387.219 116.24 378.519 110.33C361.139 98.4802 342.489 88.4502 322.839 81.0402C313.019 77.3502 302.939 74.3401 292.679 72.2801C282.419 70.2201 271.969 69.1102 261.549 69.3202C260.239 69.2902 258.949 69.4402 257.649 69.5002L253.749 69.7502L249.879 70.2302C248.589 70.3902 247.299 70.5202 246.029 70.8002L242.209 71.5301L241.249 71.7101L240.309 71.9601L238.429 72.4501C237.179 72.8001 235.909 73.0602 234.679 73.4802L231.009 74.7401C229.769 75.1201 228.589 75.6502 227.399 76.1602C226.219 76.6802 225.009 77.1601 223.849 77.7101L220.419 79.5201C219.849 79.8301 219.269 80.1102 218.709 80.4402L217.079 81.4802L213.819 83.5702L210.749 85.9201L209.219 87.1001L207.789 88.4002L204.929 91.0002L204.959 91.0201Z" fill="url(#paint14_linear_168_894)"/>
<path d="M217.579 103.65L220.259 101.15L221.599 99.9001L223.039 98.7601L225.929 96.5001C226.939 95.8101 227.969 95.1601 228.989 94.4801L230.529 93.4801C231.049 93.1601 231.599 92.8901 232.129 92.5901L235.359 90.8501C236.459 90.3201 237.589 89.8501 238.699 89.3501C239.819 88.8501 240.929 88.3401 242.089 87.9701C251.239 84.6001 260.939 82.8401 270.599 82.5801C280.279 82.2701 289.929 83.2001 299.389 84.9901C308.849 86.7801 318.109 89.4401 327.119 92.7201C336.129 96.0201 344.889 99.9401 353.399 104.34C361.909 108.73 370.149 113.64 378.069 118.99C385.989 124.36 393.669 130.06 401.019 136.18C408.359 142.3 415.429 148.75 422.219 155.47C428.919 162.28 435.339 169.36 441.439 176.72C447.529 184.09 453.209 191.78 458.549 199.71C469.229 215.56 478.229 232.6 484.889 250.6C488.209 259.6 490.849 268.86 492.649 278.32C494.439 287.77 495.369 297.42 495.069 307.1C494.809 316.77 493.049 326.46 489.689 335.61C489.319 336.77 488.809 337.88 488.309 339C487.809 340.11 487.339 341.24 486.809 342.34L485.069 345.57C484.769 346.1 484.499 346.65 484.179 347.17L483.179 348.71C482.509 349.73 481.849 350.76 481.169 351.77L478.909 354.66L477.779 356.1L476.529 357.44L474.029 360.12L471.309 362.58L469.949 363.81L468.499 364.92L465.579 367.13C464.559 367.8 463.519 368.44 462.499 369.1L460.949 370.08C460.429 370.39 459.879 370.65 459.339 370.94L456.099 372.63C454.999 373.14 453.869 373.59 452.749 374.08C451.629 374.56 450.519 375.05 449.359 375.41C440.209 378.63 430.559 380.25 420.959 380.38C401.699 380.7 382.799 376.24 365.009 369.57C347.199 362.83 330.339 353.77 314.679 343.04C306.849 337.68 299.239 331.98 291.979 325.88C284.719 319.77 277.739 313.34 271.029 306.64C264.349 299.91 257.939 292.91 251.849 285.63C245.769 278.35 240.099 270.73 234.759 262.89C224.049 247.24 214.929 230.42 208.159 212.63C204.779 203.74 202.019 194.59 200.099 185.23C198.189 175.88 197.139 166.31 197.299 156.71C197.429 147.11 199.039 137.47 202.259 128.31C202.609 127.15 203.099 126.04 203.579 124.92C204.059 123.81 204.509 122.68 205.029 121.57L206.719 118.33C207.009 117.79 207.269 117.24 207.579 116.72L208.559 115.17C209.219 114.14 209.859 113.1 210.529 112.09L212.739 109.17L213.849 107.72L215.079 106.36L217.539 103.64L217.579 103.65ZM220.579 106.65L218.249 109.16L217.079 110.41L216.019 111.76L213.909 114.46L212.019 117.33L211.079 118.77C210.779 119.26 210.529 119.77 210.249 120.28L208.609 123.3C208.109 124.33 207.669 125.4 207.199 126.44C206.729 127.49 206.249 128.53 205.899 129.63C202.719 138.27 201.019 147.5 200.769 156.8C200.469 166.1 201.359 175.46 203.099 184.65C204.839 193.85 207.429 202.9 210.639 211.72C213.869 220.54 217.709 229.14 222.029 237.5C226.349 245.86 231.169 253.97 236.439 261.78C241.719 269.58 247.349 277.15 253.379 284.4C259.419 291.64 265.769 298.61 272.399 305.31C279.119 311.92 286.109 318.26 293.359 324.27C300.619 330.27 308.209 335.87 316.019 341.13C331.629 351.65 348.389 360.49 366.009 367.01C374.819 370.26 383.869 372.83 393.059 374.58C402.249 376.32 411.599 377.21 420.899 376.92C430.199 376.67 439.419 374.97 448.059 371.8C449.159 371.45 450.199 370.97 451.249 370.5C452.299 370.03 453.359 369.59 454.389 369.09L457.409 367.45C457.909 367.17 458.429 366.92 458.919 366.62L460.359 365.68L463.229 363.8L465.929 361.69L467.279 360.63L468.529 359.46L471.039 357.13L473.339 354.59L474.489 353.32L475.529 351.96L477.599 349.23L479.439 346.34L480.359 344.9C480.649 344.41 480.889 343.89 481.159 343.39L482.749 340.36C483.229 339.32 483.649 338.26 484.109 337.21C484.559 336.16 485.029 335.12 485.359 334.02C488.399 325.38 489.949 316.2 490.069 306.97C490.379 288.46 486.059 270.02 479.529 252.62C472.929 235.19 464.029 218.61 453.459 203.19C448.179 195.48 442.559 187.99 436.549 180.82C430.529 173.66 424.189 166.78 417.579 160.16C410.939 153.57 404.039 147.25 396.859 141.25C389.679 135.26 382.179 129.67 374.449 124.41C359.039 113.86 342.499 104.9 325.079 98.2701C316.379 94.9601 307.439 92.2601 298.339 90.4001C289.249 88.5401 279.979 87.5201 270.749 87.6801C261.519 87.8001 252.339 89.3501 243.699 92.3801C242.599 92.7101 241.559 93.1801 240.509 93.6301C239.459 94.0901 238.399 94.5101 237.359 94.9901L234.329 96.5801C233.829 96.8501 233.309 97.1001 232.819 97.3801L231.369 98.3001L228.479 100.14L225.749 102.21L224.389 103.25L223.119 104.4L220.579 106.69V106.65Z" fill="url(#paint15_linear_168_894)"/>
<path d="M232.99 119.05L235.35 116.83L236.53 115.72L237.799 114.71L240.35 112.7L243.049 110.91L244.41 110.02C244.87 109.74 245.35 109.5 245.82 109.23L248.67 107.68C249.64 107.21 250.63 106.79 251.62 106.34C252.6 105.9 253.589 105.44 254.609 105.11C262.689 102.1 271.25 100.51 279.79 100.24C296.91 99.64 313.81 103.22 329.73 108.87C337.69 111.74 345.44 115.17 352.95 119.02C360.47 122.87 367.76 127.16 374.76 131.86C381.75 136.58 388.56 141.57 395.04 146.97C401.5 152.38 407.72 158.07 413.7 164C419.6 170.01 425.26 176.26 430.62 182.75C435.98 189.25 440.99 196.04 445.69 203.04C450.39 210.03 454.699 217.3 458.549 224.81C462.41 232.32 465.85 240.05 468.73 248C471.63 255.95 473.91 264.14 475.46 272.49C477 280.84 477.78 289.37 477.47 297.91C477.2 306.45 475.609 315.01 472.59 323.09C472.26 324.11 471.799 325.1 471.359 326.08C470.91 327.06 470.49 328.06 470.02 329.03L468.47 331.88C468.21 332.35 467.96 332.83 467.68 333.29L466.79 334.65L465 337.35L462.99 339.9L461.98 341.17L460.87 342.35L458.65 344.71L456.24 346.87L455.03 347.95L453.74 348.93L451.16 350.87L448.43 352.59L447.06 353.45C446.6 353.72 446.11 353.95 445.64 354.2L442.78 355.68C441.81 356.13 440.809 356.52 439.829 356.94C438.839 357.36 437.86 357.79 436.84 358.09C428.76 360.89 420.27 362.27 411.829 362.34C394.9 362.54 378.33 358.54 362.76 352.61C347.16 346.64 332.43 338.59 318.72 329.17C311.86 324.46 305.2 319.46 298.829 314.1C292.469 308.74 286.35 303.09 280.48 297.21C268.78 285.4 258.04 272.62 248.67 258.87C239.23 245.18 231.17 230.48 225.17 214.89C222.15 207.11 219.68 199.1 217.94 190.89C216.22 182.69 215.22 174.29 215.33 165.85C215.41 157.41 216.79 148.92 219.59 140.84C219.9 139.82 220.33 138.83 220.74 137.85C221.16 136.87 221.56 135.87 222 134.9L223.48 132.04C223.73 131.57 223.96 131.08 224.23 130.62L225.09 129.25L226.82 126.52L228.76 123.94L229.74 122.65L230.82 121.44L232.98 119.03L232.99 119.05ZM236.12 122.19L234.079 124.37L233.06 125.46L232.13 126.63L230.28 128.98L228.62 131.48L227.79 132.73C227.53 133.16 227.3 133.6 227.06 134.04L225.62 136.68C225.18 137.58 224.79 138.51 224.37 139.42C223.96 140.34 223.53 141.25 223.22 142.21C220.41 149.75 218.88 157.83 218.62 165.98C218.03 182.32 221.46 198.73 226.98 214.25C229.78 222.01 233.13 229.59 236.9 236.95C240.66 244.32 244.87 251.46 249.49 258.34C254.12 265.21 259.029 271.89 264.329 278.26C269.649 284.62 275.249 290.73 281.079 296.62C286.999 302.43 293.14 307.99 299.53 313.27C305.92 318.54 312.6 323.46 319.46 328.07C326.33 332.69 333.46 336.91 340.82 340.68C348.17 344.46 355.74 347.82 363.49 350.63C371.24 353.45 379.21 355.67 387.29 357.17C395.37 358.66 403.58 359.4 411.73 359.1C419.88 358.84 427.96 357.31 435.5 354.49C436.46 354.18 437.37 353.75 438.29 353.34C439.2 352.92 440.13 352.53 441.03 352.09L443.67 350.64C444.11 350.4 444.56 350.17 444.98 349.91L446.23 349.08L448.73 347.42L451.079 345.56L452.25 344.63L453.34 343.6L455.52 341.56L457.51 339.33L458.51 338.22L459.41 337.03L461.2 334.65L462.79 332.12L463.579 330.86C463.829 330.43 464.04 329.98 464.27 329.54L465.64 326.89C466.05 325.99 466.42 325.06 466.81 324.14C467.2 323.22 467.6 322.31 467.88 321.35C470.48 313.81 471.799 305.8 471.859 297.75C472.039 281.6 468.19 265.52 462.41 250.35C456.58 235.14 448.71 220.7 439.45 207.24C434.83 200.5 429.91 193.96 424.65 187.7C419.38 181.45 413.83 175.43 408.04 169.65C396.42 158.14 383.85 147.58 370.35 138.38C356.92 129.11 342.5 121.21 327.31 115.36C319.73 112.42 311.94 110.01 304 108.33C296.07 106.66 287.99 105.7 279.93 105.8C271.87 105.87 263.869 107.18 256.329 109.79C255.369 110.07 254.46 110.47 253.54 110.86C252.63 111.25 251.7 111.62 250.79 112.03L248.14 113.4C247.7 113.63 247.25 113.85 246.82 114.09L245.56 114.88L243.04 116.47L240.66 118.26L239.47 119.16L238.359 120.16L236.13 122.15L236.12 122.19Z" fill="url(#paint16_linear_168_894)"/>
<path d="M453.379 450.96C437.129 450.96 419.609 448.56 401.099 443.71C344.559 428.89 285.649 392.94 235.199 342.5C184.759 292.06 148.809 233.14 133.989 176.6C119.139 119.97 127.259 72.49 156.839 42.91C186.419 13.33 233.899 5.21004 290.529 20.06C347.069 34.88 405.979 70.83 456.429 121.27C506.869 171.71 542.819 230.63 557.639 287.17C572.49 343.8 564.369 391.28 534.789 420.86C514.869 440.78 486.839 450.96 453.369 450.96H453.379ZM238.349 13.92C205.859 13.92 177.679 23.48 157.549 43.61C128.229 72.93 120.199 120.07 134.959 176.34C149.739 232.71 185.589 291.46 235.909 341.78C305.249 411.12 387.959 449.82 453.289 449.83C485.779 449.83 513.96 440.27 534.09 420.14C563.41 390.82 571.439 343.68 556.679 287.41C541.899 231.04 506.049 172.29 455.729 121.97C386.389 52.64 303.679 13.92 238.349 13.92Z" fill="url(#paint17_linear_168_894)"/>
<path d="M453.379 450.96C437.129 450.96 419.609 448.56 401.099 443.71C344.559 428.89 285.649 392.94 235.199 342.5C184.759 292.06 148.809 233.14 133.989 176.6C119.139 119.97 127.259 72.49 156.839 42.91C186.419 13.33 233.899 5.21004 290.529 20.06C347.069 34.88 405.979 70.83 456.429 121.27C506.869 171.71 542.819 230.63 557.639 287.17C572.49 343.8 564.369 391.28 534.789 420.86C514.869 440.78 486.839 450.96 453.369 450.96H453.379ZM238.349 13.92C205.859 13.92 177.679 23.48 157.549 43.61C128.229 72.93 120.199 120.07 134.959 176.34C149.739 232.71 185.589 291.46 235.909 341.78C305.249 411.12 387.959 449.82 453.289 449.83C485.779 449.83 513.96 440.27 534.09 420.14C563.41 390.82 571.439 343.68 556.679 287.41C541.899 231.04 506.049 172.29 455.729 121.97C386.389 52.64 303.679 13.92 238.349 13.92Z" fill="url(#paint18_linear_168_894)"/>
<path d="M538.01 431.78C527.58 442.21 514.77 450.19 500.93 455.21C494.03 457.78 486.88 459.63 479.64 460.91C472.4 462.2 465.07 462.91 457.74 463.1C443.06 463.5 428.39 462.04 414.02 459.21C399.64 456.39 385.55 452.26 371.83 447.19C344.4 436.96 318.46 423.04 294.24 406.7C270.02 390.34 247.47 371.55 226.79 350.9C206.15 330.22 187.37 307.67 171.01 283.44C154.68 259.22 140.77 233.27 130.55 205.85C125.47 192.14 121.34 178.05 118.51 163.67C115.68 149.31 114.21 134.63 114.61 119.95C114.8 112.61 115.5 105.28 116.79 98.0501C118.06 90.8101 119.92 83.6601 122.48 76.7601C127.49 62.9201 135.48 50.1101 145.9 39.6601C156.36 29.2501 169.18 21.2901 183.02 16.3101C189.92 13.7601 197.07 11.9201 204.3 10.6601C211.53 9.38006 218.86 8.69006 226.19 8.52006C240.85 8.15006 255.51 9.64006 269.86 12.4901C284.21 15.3401 298.28 19.4901 311.98 24.5901C339.36 34.8401 365.26 48.7901 389.43 65.1401C413.6 81.5201 436.1 100.32 456.72 120.97C477.36 141.6 496.15 164.1 512.52 188.28C528.86 212.46 542.79 238.35 553.03 265.73C558.13 279.42 562.29 293.48 565.14 307.83C568 322.17 569.49 336.83 569.13 351.49C568.95 358.82 568.27 366.14 566.99 373.37C565.74 380.6 563.9 387.75 561.35 394.65C556.37 408.49 548.42 421.31 538.01 431.77V431.78ZM536.34 430.1C546.51 419.92 554.31 407.43 559.22 393.88C561.73 387.12 563.55 380.11 564.8 373C566.07 365.89 566.76 358.67 566.95 351.44C567.35 336.97 565.9 322.47 563.1 308.24C560.31 294.01 556.22 280.04 551.18 266.42C541.03 239.2 527.19 213.42 510.94 189.34C494.67 165.26 475.97 142.82 455.43 122.25C434.85 101.72 412.41 83.0301 388.32 66.7701C364.23 50.5401 338.45 36.7101 311.23 26.5701C297.62 21.5301 283.65 17.4401 269.43 14.6401C255.21 11.8401 240.71 10.3901 226.25 10.7801C219.02 10.9701 211.81 11.6601 204.7 12.9301C197.59 14.1801 190.58 16.0001 183.82 18.5101C170.27 23.4201 157.78 31.2101 147.6 41.3801C137.45 51.5801 129.69 64.0801 124.8 77.6301C122.3 84.3901 120.5 91.3901 119.26 98.5001C118.01 105.6 117.33 112.81 117.15 120.04C116.78 134.49 118.25 148.98 121.08 163.18C123.9 177.39 128.01 191.34 133.07 204.92C143.24 232.09 157.1 257.83 173.36 281.86C189.65 305.9 208.35 328.28 228.89 348.8C249.41 369.34 271.8 388.04 295.84 404.31C319.88 420.56 345.61 434.41 372.78 444.57C386.36 449.63 400.3 453.75 414.51 456.58C428.71 459.41 443.19 460.89 457.64 460.53C464.86 460.36 472.07 459.68 479.18 458.43C486.29 457.2 493.3 455.39 500.05 452.9C513.6 448.02 526.1 440.26 536.31 430.12L536.34 430.1Z" fill="url(#paint19_linear_168_894)"/>
<path d="M540.93 442.39C530.15 453.22 516.89 461.54 502.56 466.78C495.41 469.46 488.01 471.41 480.51 472.75C473.01 474.11 465.41 474.86 457.81 475.08C442.6 475.54 427.38 474.06 412.49 471.18C397.58 468.3 382.97 464.06 368.74 458.84C354.51 453.61 340.68 447.35 327.25 440.35C313.82 433.35 300.81 425.56 288.25 417.1C263.16 400.15 239.8 380.69 218.39 359.31C197.04 337.87 177.61 314.49 160.7 289.38C143.82 264.27 129.43 237.38 118.87 208.95C113.61 194.74 109.39 180.12 106.49 165.21C103.6 150.31 102.11 135.1 102.57 119.88C102.79 112.27 103.54 104.67 104.89 97.17C106.23 89.67 108.17 82.26 110.85 75.1C116.09 60.76 124.41 47.49 135.24 36.7C146.11 25.94 159.42 17.74 173.76 12.61C180.91 9.99004 188.31 8.11004 195.8 6.83004C203.29 5.53004 210.86 4.84004 218.44 4.68004C233.6 4.34004 248.75 5.92004 263.56 8.91004C278.39 11.89 292.9 16.24 307.04 21.51C335.32 32.14 362.05 46.58 387 63.5C411.95 80.45 435.16 99.9 456.44 121.25C477.75 142.56 497.16 165.81 514.06 190.78C530.96 215.73 545.44 242.42 556.08 270.69C561.38 284.82 565.71 299.33 568.7 314.15C571.69 328.96 573.27 344.1 572.93 359.25C572.77 366.82 572.08 374.4 570.78 381.88C569.5 389.36 567.62 396.76 565 403.91C559.88 418.24 551.68 431.54 540.93 442.4V442.39ZM538.89 440.35C549.41 429.87 557.49 417.01 562.6 403.02C565.21 396.05 567.11 388.81 568.42 381.46C569.75 374.12 570.49 366.66 570.7 359.18C571.15 344.22 569.69 329.22 566.83 314.5C563.98 299.77 559.78 285.31 554.61 271.21C549.42 257.12 543.21 243.4 536.25 230.08C529.3 216.76 521.55 203.84 513.15 191.37C496.31 166.45 476.96 143.25 455.7 121.97C434.38 100.75 411.15 81.45 386.21 64.65C361.27 47.89 334.58 33.61 306.42 23.16C292.34 17.95 277.87 13.78 263.16 10.92C248.45 8.06004 233.45 6.61004 218.5 7.06004C211.03 7.27004 203.58 8.01004 196.24 9.34004C188.9 10.65 181.66 12.55 174.69 15.16C160.72 20.27 147.86 28.34 137.39 38.85C126.96 49.4 119 62.29 114.01 76.26C111.46 83.23 109.62 90.45 108.37 97.78C107.1 105.1 106.42 112.53 106.26 119.98C105.92 134.87 107.48 149.8 110.43 164.43C113.37 179.07 117.67 193.43 122.89 207.44C133.41 235.45 147.74 261.98 164.54 286.76C181.37 311.54 200.69 334.61 221.91 355.76C243.09 376.95 266.18 396.24 290.98 413.03C315.75 429.83 342.24 444.21 370.24 454.76C384.23 460.02 398.6 464.31 413.24 467.26C427.87 470.22 442.8 471.78 457.7 471.45C465.15 471.29 472.58 470.62 479.9 469.35C487.23 468.1 494.46 466.26 501.43 463.71C515.41 458.72 528.32 450.76 538.88 440.32L538.89 440.35Z" fill="url(#paint20_linear_168_894)"/>
<path d="M512.95 540.37C500.4 552.93 484.92 562.48 468.19 568.36C459.85 571.39 451.2 573.5 442.47 574.96C433.73 576.44 424.88 577.14 416.03 577.3C398.32 577.61 380.63 575.61 363.32 572.04C346 568.47 329.02 563.34 312.5 557.09C295.97 550.83 279.9 543.4 264.31 535.11C248.71 526.82 233.59 517.64 218.99 507.7C189.8 487.81 162.6 465.04 137.63 440.08C112.7 415.08 89.9597 387.87 70.0897 358.67C60.1597 344.07 50.9597 328.97 42.6697 313.37C34.3697 297.78 26.9297 281.72 20.6597 265.2C14.3797 248.69 9.2597 231.71 5.6897 214.39C2.1197 197.08 0.109699 179.39 0.429699 161.68C0.579699 152.83 1.2897 143.98 2.7597 135.24C4.2197 126.51 6.3297 117.86 9.3597 109.52C15.2397 92.79 24.7897 77.31 37.3497 64.76C49.9497 52.26 65.4597 42.78 82.1797 36.98C90.5197 33.99 99.1597 31.92 107.88 30.5C116.61 29.06 125.44 28.4 134.27 28.28C151.94 28.04 169.58 30.11 186.84 33.75C204.11 37.38 221.02 42.58 237.49 48.87C253.96 55.16 269.98 62.62 285.51 70.94C301.06 79.25 316.11 88.47 330.66 98.41C359.76 118.3 386.86 141.06 411.75 165.99C436.66 190.9 459.39 218.02 479.25 247.14C484.2 254.42 489 261.81 493.6 269.33C498.19 276.85 502.56 284.5 506.73 292.27C515.06 307.8 522.53 323.8 528.82 340.27C535.13 356.73 540.32 373.64 543.96 390.9C547.6 408.15 549.67 425.79 549.43 443.47C549.31 452.3 548.65 461.14 547.21 469.86C545.79 478.58 543.72 487.22 540.73 495.56C534.93 512.29 525.46 527.79 512.95 540.4V540.37ZM511.75 539.18C524.12 526.82 533.53 511.57 539.34 495.05C542.33 486.82 544.41 478.27 545.86 469.62C547.32 460.97 548.02 452.2 548.18 443.43C548.49 425.87 546.51 408.3 542.96 391.09C539.41 373.87 534.31 356.98 528.08 340.53C521.85 324.07 514.45 308.07 506.19 292.53C497.93 276.99 488.78 261.92 478.87 247.37C459.04 218.27 436.34 191.16 411.46 166.25C386.53 141.39 359.4 118.71 330.29 98.91C315.73 89.02 300.68 79.84 285.15 71.58C269.62 63.31 253.62 55.9 237.17 49.66C220.73 43.41 203.84 38.32 186.62 34.76C169.41 31.21 151.84 29.22 134.28 29.53C125.51 29.68 116.73 30.38 108.09 31.84C99.4497 33.29 90.8997 35.37 82.6597 38.36C66.1397 44.17 50.8897 53.58 38.5297 65.95C26.2097 78.37 16.8797 93.64 11.1497 110.15C8.1997 118.38 6.1597 126.93 4.7397 135.56C3.3197 144.2 2.6597 152.95 2.5397 161.71C2.2997 179.23 4.3497 196.75 7.9697 213.91C11.5797 231.08 16.7497 247.9 23.0097 264.3C29.2697 280.7 36.6997 296.65 44.9897 312.13C53.2697 327.62 62.4597 342.62 72.3597 357.12C92.1897 386.12 114.87 413.15 139.74 437.97C164.58 462.81 191.63 485.47 220.64 505.27C227.9 510.21 235.27 514.99 242.76 519.57C250.26 524.14 257.88 528.5 265.62 532.65C281.09 540.95 297.03 548.39 313.43 554.66C329.81 560.94 346.64 566.11 363.81 569.72C380.96 573.34 398.48 575.39 416.01 575.16C424.77 575.04 433.52 574.39 442.16 572.96C450.79 571.55 459.33 569.51 467.57 566.56C484.09 560.83 499.36 551.5 511.78 539.18H511.75Z" fill="url(#paint21_linear_168_894)"/>
<path d="M521.05 526.9C508.6 539.32 493.29 548.79 476.75 554.68C468.5 557.7 459.95 559.84 451.31 561.32C442.66 562.81 433.9 563.57 425.14 563.75C407.61 564.12 390.08 562.24 372.93 558.76C355.76 555.29 338.94 550.26 322.56 544.11C306.17 537.96 290.25 530.63 274.79 522.45C259.32 514.28 244.35 505.18 229.87 495.37C200.92 475.73 173.96 453.21 149.21 428.5C124.5 403.75 101.98 376.79 82.3401 347.84C72.5301 333.36 63.4401 318.39 55.2601 302.92C47.0801 287.46 39.7501 271.54 33.6001 255.15C27.4501 238.77 22.4201 221.95 18.9501 204.78C15.4701 187.63 13.5901 170.1 13.9601 152.57C14.1401 143.81 14.9001 135.05 16.3901 126.4C17.8601 117.75 20.0101 109.21 23.0301 100.96C28.9201 84.4201 38.3901 69.1101 50.8101 56.6601C63.2701 44.2501 78.5901 34.8001 95.1301 28.9301C103.38 25.9201 111.93 23.7901 120.57 22.3201C129.21 20.8401 137.97 20.0901 146.73 19.9201C164.26 19.5601 181.77 21.4701 198.91 24.9601C216.06 28.4501 232.87 33.4901 249.23 39.6601C265.6 45.8201 281.51 53.1601 296.95 61.3501C312.4 69.5301 327.35 78.6401 341.81 88.4601C370.72 108.12 397.64 130.65 422.35 155.37C447.07 180.07 469.6 207 489.26 235.91C499.08 250.37 508.18 265.32 516.37 280.77C524.56 296.21 531.9 312.12 538.06 328.49C544.23 344.85 549.27 361.66 552.76 378.81C556.25 395.95 558.16 413.46 557.8 430.99C557.63 439.75 556.88 448.5 555.4 457.15C553.94 465.79 551.8 474.34 548.79 482.59C542.92 499.13 533.47 514.45 521.06 526.91L521.05 526.9ZM519.94 525.79C532.19 513.51 541.54 498.41 547.35 482.06C550.33 473.91 552.45 465.45 553.91 456.89C555.39 448.33 556.14 439.64 556.32 430.95C556.69 413.55 554.82 396.14 551.36 379.08C547.9 362.01 542.9 345.26 536.77 328.95C530.65 312.63 523.34 296.77 515.19 281.36C507.05 265.95 497.98 251.02 488.2 236.59C468.62 207.73 446.16 180.84 421.52 156.16C396.84 131.52 369.95 109.06 341.09 89.4801C326.65 79.7001 311.73 70.6401 296.32 62.4901C280.91 54.3401 265.05 47.0401 248.73 40.9101C232.42 34.7801 215.67 29.7801 198.6 26.3201C181.54 22.8601 164.13 20.9901 146.73 21.3601C138.04 21.5401 129.35 22.2901 120.79 23.7701C112.23 25.2301 103.77 27.3501 95.6201 30.3301C79.2701 36.1501 64.1701 45.4901 51.8901 57.7401C39.6501 70.0401 30.3301 85.1401 24.5301 101.49C21.5601 109.64 19.4501 118.1 17.9901 126.66C16.5201 135.22 15.7801 143.9 15.6101 152.59C15.2601 169.98 17.1401 187.38 20.6201 204.43C24.0901 221.49 29.1101 238.22 35.2501 254.51C41.3801 270.81 48.7001 286.66 56.8601 302.05C65.0101 317.45 74.0901 332.35 83.8801 346.77C103.48 375.59 125.95 402.44 150.6 427.08C175.24 451.73 202.09 474.2 230.91 493.8C245.33 503.59 260.23 512.66 275.63 520.82C291.02 528.98 306.87 536.3 323.17 542.43C339.46 548.57 356.19 553.59 373.25 557.06C390.3 560.54 407.7 562.42 425.09 562.07C433.78 561.9 442.46 561.16 451.02 559.69C459.58 558.24 468.04 556.13 476.19 553.15C492.54 547.35 507.64 538.02 519.94 525.79Z" fill="url(#paint22_linear_168_894)"/>
<path d="M428.97 550.25C409 550.25 387.46 547.3 364.72 541.34C295.22 523.12 222.8 478.93 160.78 416.92C98.7698 354.91 54.5798 282.48 36.3598 212.98C18.1198 143.39 28.0798 85.0401 64.4298 48.7001C100.78 12.3601 159.12 2.39006 228.71 20.6301C298.21 38.8501 370.63 83.0401 432.65 145.05C494.66 207.06 538.85 279.49 557.07 348.99C575.31 418.58 565.35 476.93 529 513.27C504.53 537.74 470.09 550.25 428.97 550.25ZM164.46 12.7201C123.6 12.7201 89.4098 25.1301 65.1298 49.4101C-9.43024 123.97 33.7897 288.52 161.48 416.21C289.17 543.9 453.72 587.12 528.28 512.56C602.84 438 559.62 273.45 431.93 145.76C370.04 83.8701 297.78 39.7801 228.45 21.6001C205.79 15.6601 184.33 12.7201 164.46 12.7201Z" fill="url(#paint23_linear_168_894)"/>
<path d="M438.37 530.45C418.92 530.45 397.94 527.58 375.78 521.77C308.08 504.02 237.53 460.98 177.13 400.57C116.72 340.16 73.6797 269.61 55.9297 201.92C38.1597 134.13 47.8697 77.29 83.2697 41.89C118.68 6.47998 175.51 -3.23002 243.31 14.54C311.01 32.29 381.56 75.33 441.96 135.74C502.37 196.15 545.41 266.7 563.16 334.39C580.93 402.18 571.22 459.02 535.82 494.42C511.99 518.25 478.43 530.45 438.37 530.45ZM180.82 7.00998C141.88 7.00998 108.11 18.47 83.9797 42.6C11.3497 115.23 53.4597 275.5 177.83 399.87C302.21 524.25 462.48 566.35 535.1 493.72C570.24 458.57 579.86 402.08 562.18 334.65C544.48 267.12 501.53 196.73 441.24 136.45C358.19 53.38 259.1 7.00998 180.82 7.00998Z" fill="url(#paint24_linear_168_894)"/>
<path d="M447.77 510.65C428.84 510.65 408.41 507.85 386.84 502.2C320.94 484.92 252.27 443.03 193.47 384.23C134.67 325.43 92.7696 256.76 75.4996 190.86C58.1996 124.87 67.6496 69.54 102.12 35.07C136.59 0.600006 191.91 -8.84999 257.9 8.45001C323.8 25.73 392.47 67.62 451.27 126.42C510.07 185.22 551.97 253.89 569.24 319.79C586.54 385.78 577.09 441.11 542.62 475.58C519.42 498.78 486.76 510.65 447.76 510.65H447.77ZM196.98 1.00001C158.24 1.00001 125.83 12.77 102.82 35.78C32.1296 106.47 73.1096 262.47 194.17 383.53C252.85 442.21 321.36 484.01 387.09 501.24C408.57 506.87 428.92 509.66 447.76 509.66C486.5 509.66 518.91 497.89 541.92 474.88C612.61 404.19 571.63 248.19 450.57 127.13C391.89 68.45 323.38 26.65 257.65 9.42001C236.17 3.79001 215.82 1.00001 196.98 1.00001Z" fill="url(#paint25_linear_168_894)"/>
<path d="M541.93 459.14C530.67 470.39 516.85 479.01 501.91 484.43C494.46 487.2 486.74 489.2 478.93 490.58C471.12 491.97 463.21 492.73 455.29 492.94C439.45 493.37 423.6 491.79 408.09 488.74C392.57 485.69 377.35 481.24 362.54 475.76C347.73 470.27 333.33 463.71 319.35 456.37C305.37 449.04 291.84 440.86 278.76 432.04C252.6 414.37 228.26 394.08 205.93 371.79C183.64 349.46 163.36 325.11 145.69 298.95C136.88 285.86 128.7 272.34 121.37 258.35C114.04 244.37 107.48 229.97 101.99 215.16C96.4999 200.35 92.0399 185.14 88.9899 169.62C85.9299 154.11 84.3499 138.27 84.7699 122.43C84.9699 114.51 85.7299 106.6 87.1199 98.7901C88.4899 90.9801 90.4899 83.2601 93.2599 75.8101C98.6699 60.8701 107.28 47.0401 118.54 35.7801C129.83 24.5501 143.66 15.9601 158.6 10.5701C166.05 7.8201 173.76 5.8301 181.57 4.4701C189.38 3.0901 197.29 2.3501 205.2 2.1601C221.03 1.7601 236.86 3.3701 252.35 6.4501C267.85 9.5201 283.04 14.0101 297.83 19.5101C312.62 25.0201 327 31.5901 340.95 38.9401C354.91 46.2801 368.41 54.4701 381.47 63.3001C407.58 80.9901 431.87 101.29 454.14 123.59C476.43 145.87 496.72 170.17 514.4 196.28C523.22 209.34 531.41 222.85 538.74 236.81C546.08 250.76 552.65 265.14 558.15 279.93C563.66 294.71 568.14 309.9 571.22 325.39C574.3 340.88 575.92 356.7 575.52 372.52C575.33 380.43 574.59 388.34 573.21 396.14C571.85 403.95 569.87 411.66 567.12 419.11C561.74 434.04 553.16 447.88 541.93 459.16V459.14ZM540.26 457.47C551.26 446.46 559.68 432.96 564.99 418.31C567.7 411 569.67 403.43 571.02 395.74C572.39 388.06 573.14 380.26 573.34 372.44C573.77 356.81 572.2 341.13 569.18 325.76C566.16 310.38 561.74 295.29 556.3 280.58C550.84 265.87 544.32 251.57 537.03 237.67C529.74 223.77 521.6 210.32 512.83 197.3C495.25 171.28 475.05 147.05 452.86 124.83C430.63 102.65 406.39 82.4601 380.37 64.8901C367.35 56.1201 353.9 47.9901 340 40.7101C326.11 33.4201 311.8 26.9101 297.09 21.4601C282.39 16.0101 267.3 11.5901 251.93 8.5701C236.57 5.5401 220.9 3.9801 205.27 4.4001C197.46 4.6001 189.66 5.3501 181.98 6.7201C174.3 8.0701 166.72 10.0401 159.41 12.7501C144.76 18.0601 131.26 26.4801 120.25 37.4701C109.28 48.5001 100.88 62.0101 95.5999 76.6501C92.8999 83.9501 90.9499 91.5301 89.6099 99.2101C88.2499 106.89 87.5199 114.68 87.3299 122.49C86.9299 138.11 88.5199 153.76 91.5699 169.11C94.6099 184.46 99.0599 199.53 104.52 214.21C109.99 228.89 116.52 243.18 123.82 257.05C131.12 270.93 139.26 284.35 148.04 297.34C165.63 323.31 185.84 347.49 208.03 369.66C230.2 391.85 254.39 412.05 280.36 429.63C293.35 438.41 306.78 446.55 320.66 453.84C334.53 461.14 348.81 467.67 363.5 473.13C378.18 478.6 393.24 483.05 408.59 486.1C423.93 489.16 439.58 490.75 455.2 490.36C463.01 490.17 470.8 489.44 478.48 488.09C486.16 486.76 493.74 484.81 501.04 482.11C515.69 476.83 529.2 468.45 540.24 457.47H540.26Z" fill="url(#paint26_linear_168_894)"/>
<path d="M540.93 442.39C530.15 453.22 516.89 461.54 502.56 466.78C495.41 469.46 488.01 471.41 480.51 472.75C473.01 474.11 465.41 474.86 457.81 475.08C442.6 475.54 427.38 474.06 412.49 471.18C397.58 468.3 382.97 464.06 368.74 458.84C354.51 453.61 340.68 447.35 327.25 440.35C313.82 433.35 300.81 425.56 288.25 417.1C263.16 400.15 239.8 380.69 218.39 359.31C197.04 337.87 177.61 314.49 160.7 289.38C143.82 264.27 129.43 237.38 118.87 208.95C113.61 194.74 109.39 180.12 106.49 165.21C103.6 150.31 102.11 135.1 102.57 119.88C102.79 112.27 103.54 104.67 104.89 97.17C106.23 89.67 108.17 82.26 110.85 75.1C116.09 60.76 124.41 47.49 135.24 36.7C146.11 25.94 159.42 17.74 173.76 12.61C180.91 9.99004 188.31 8.11004 195.8 6.83004C203.29 5.53004 210.86 4.84004 218.44 4.68004C233.6 4.34004 248.75 5.92004 263.56 8.91004C278.39 11.89 292.9 16.24 307.04 21.51C335.32 32.14 362.05 46.58 387 63.5C411.95 80.45 435.16 99.9 456.44 121.25C477.75 142.56 497.16 165.81 514.06 190.78C530.96 215.73 545.44 242.42 556.08 270.69C561.38 284.82 565.71 299.33 568.7 314.15C571.69 328.96 573.27 344.1 572.93 359.25C572.77 366.82 572.08 374.4 570.78 381.88C569.5 389.36 567.62 396.76 565 403.91C559.88 418.24 551.68 431.54 540.93 442.4V442.39ZM538.89 440.35C549.41 429.87 557.49 417.01 562.6 403.02C565.21 396.05 567.11 388.81 568.42 381.46C569.75 374.12 570.49 366.66 570.7 359.18C571.15 344.22 569.69 329.22 566.83 314.5C563.98 299.77 559.78 285.31 554.61 271.21C549.42 257.12 543.21 243.4 536.25 230.08C529.3 216.76 521.55 203.84 513.15 191.37C496.31 166.45 476.96 143.25 455.7 121.97C434.38 100.75 411.15 81.45 386.21 64.65C361.27 47.89 334.58 33.61 306.42 23.16C292.34 17.95 277.87 13.78 263.16 10.92C248.45 8.06004 233.45 6.61004 218.5 7.06004C211.03 7.27004 203.58 8.01004 196.24 9.34004C188.9 10.65 181.66 12.55 174.69 15.16C160.72 20.27 147.86 28.34 137.39 38.85C126.96 49.4 119 62.29 114.01 76.26C111.46 83.23 109.62 90.45 108.37 97.78C107.1 105.1 106.42 112.53 106.26 119.98C105.92 134.87 107.48 149.8 110.43 164.43C113.37 179.07 117.67 193.43 122.89 207.44C133.41 235.45 147.74 261.98 164.54 286.76C181.37 311.54 200.69 334.61 221.91 355.76C243.09 376.95 266.18 396.24 290.98 413.03C315.75 429.83 342.24 444.21 370.24 454.76C384.23 460.02 398.6 464.31 413.24 467.26C427.87 470.22 442.8 471.78 457.7 471.45C465.15 471.29 472.58 470.62 479.9 469.35C487.23 468.1 494.46 466.26 501.43 463.71C515.41 458.72 528.32 450.76 538.88 440.32L538.89 440.35Z" fill="url(#paint27_linear_168_894)"/>
<defs>
<linearGradient id="paint0_linear_168_894" x1="154.101" y1="334.279" x2="333.314" y2="335.26" gradientUnits="userSpaceOnUse">
<stop stop-color="#53EBFF"/>
<stop offset="1" stop-color="#239EAE"/>
</linearGradient>
<linearGradient id="paint1_linear_168_894" x1="166.747" y1="321.522" x2="346.05" y2="322.504" gradientUnits="userSpaceOnUse">
<stop stop-color="#53EBFF"/>
<stop offset="1" stop-color="#239EAE"/>
</linearGradient>
<linearGradient id="paint2_linear_168_894" x1="179.396" y1="308.8" x2="358.84" y2="309.783" gradientUnits="userSpaceOnUse">
<stop stop-color="#53EBFF"/>
<stop offset="1" stop-color="#239EAE"/>
</linearGradient>
<linearGradient id="paint3_linear_168_894" x1="192.042" y1="296.111" x2="371.714" y2="297.095" gradientUnits="userSpaceOnUse">
<stop stop-color="#53EBFF"/>
<stop offset="1" stop-color="#239EAE"/>
</linearGradient>
<linearGradient id="paint4_linear_168_894" x1="204.688" y1="283.384" x2="384.518" y2="284.369" gradientUnits="userSpaceOnUse">
<stop stop-color="#53EBFF"/>
<stop offset="1" stop-color="#239EAE"/>
</linearGradient>
<linearGradient id="paint5_linear_168_894" x1="217.345" y1="270.667" x2="397.312" y2="271.653" gradientUnits="userSpaceOnUse">
<stop stop-color="#53EBFF"/>
<stop offset="1" stop-color="#239EAE"/>
</linearGradient>
<linearGradient id="paint6_linear_168_894" x1="216.626" y1="262.885" x2="413.645" y2="263.964" gradientUnits="userSpaceOnUse">
<stop stop-color="#53EBFF"/>
<stop offset="1" stop-color="#239EAE"/>
</linearGradient>
<linearGradient id="paint7_linear_168_894" x1="216.061" y1="255.054" x2="429.897" y2="256.224" gradientUnits="userSpaceOnUse">
<stop stop-color="#53EBFF"/>
<stop offset="1" stop-color="#239EAE"/>
</linearGradient>
<linearGradient id="paint8_linear_168_894" x1="215.679" y1="247.14" x2="446.162" y2="248.402" gradientUnits="userSpaceOnUse">
<stop stop-color="#53EBFF"/>
<stop offset="1" stop-color="#239EAE"/>
</linearGradient>
<linearGradient id="paint9_linear_168_894" x1="215.435" y1="239.236" x2="462.328" y2="240.588" gradientUnits="userSpaceOnUse">
<stop stop-color="#53EBFF"/>
<stop offset="1" stop-color="#239EAE"/>
</linearGradient>
<linearGradient id="paint10_linear_168_894" x1="215.322" y1="231.261" x2="478.381" y2="232.701" gradientUnits="userSpaceOnUse">
<stop stop-color="#53EBFF"/>
<stop offset="1" stop-color="#239EAE"/>
</linearGradient>
<linearGradient id="paint11_linear_168_894" x1="126.737" y1="231.884" x2="566.3" y2="234.29" gradientUnits="userSpaceOnUse">
<stop stop-color="#53EBFF"/>
<stop offset="1" stop-color="#239EAE"/>
</linearGradient>
<linearGradient id="paint12_linear_168_894" x1="144.213" y1="231.86" x2="548.803" y2="234.075" gradientUnits="userSpaceOnUse">
<stop stop-color="#53EBFF"/>
<stop offset="1" stop-color="#239EAE"/>
</linearGradient>
<linearGradient id="paint13_linear_168_894" x1="161.761" y1="231.775" x2="531.319" y2="233.798" gradientUnits="userSpaceOnUse">
<stop stop-color="#53EBFF"/>
<stop offset="1" stop-color="#239EAE"/>
</linearGradient>
<linearGradient id="paint14_linear_168_894" x1="179.433" y1="231.643" x2="513.743" y2="233.473" gradientUnits="userSpaceOnUse">
<stop stop-color="#53EBFF"/>
<stop offset="1" stop-color="#239EAE"/>
</linearGradient>
<linearGradient id="paint15_linear_168_894" x1="197.283" y1="231.459" x2="496.082" y2="233.094" gradientUnits="userSpaceOnUse">
<stop stop-color="#53EBFF"/>
<stop offset="1" stop-color="#239EAE"/>
</linearGradient>
<linearGradient id="paint16_linear_168_894" x1="215.321" y1="231.261" x2="478.38" y2="232.701" gradientUnits="userSpaceOnUse">
<stop stop-color="#53EBFF"/>
<stop offset="1" stop-color="#239EAE"/>
</linearGradient>
<linearGradient id="paint17_linear_168_894" x1="126.737" y1="231.884" x2="566.3" y2="234.29" gradientUnits="userSpaceOnUse">
<stop stop-color="#53EBFF"/>
<stop offset="1" stop-color="#239EAE"/>
</linearGradient>
<linearGradient id="paint18_linear_168_894" x1="126.737" y1="231.884" x2="566.3" y2="234.29" gradientUnits="userSpaceOnUse">
<stop stop-color="#53EBFF"/>
<stop offset="1" stop-color="#239EAE"/>
</linearGradient>
<linearGradient id="paint19_linear_168_894" x1="114.545" y1="235.815" x2="570.644" y2="238.311" gradientUnits="userSpaceOnUse">
<stop stop-color="#53EBFF"/>
<stop offset="1" stop-color="#239EAE"/>
</linearGradient>
<linearGradient id="paint20_linear_168_894" x1="102.487" y1="239.899" x2="574.488" y2="242.483" gradientUnits="userSpaceOnUse">
<stop stop-color="#53EBFF"/>
<stop offset="1" stop-color="#239EAE"/>
</linearGradient>
<linearGradient id="paint21_linear_168_894" x1="0.396484" y1="302.796" x2="551.214" y2="305.812" gradientUnits="userSpaceOnUse">
<stop stop-color="#53EBFF"/>
<stop offset="1" stop-color="#239EAE"/>
</linearGradient>
<linearGradient id="paint22_linear_168_894" x1="13.9141" y1="291.837" x2="559.592" y2="294.824" gradientUnits="userSpaceOnUse">
<stop stop-color="#53EBFF"/>
<stop offset="1" stop-color="#239EAE"/>
</linearGradient>
<linearGradient id="paint23_linear_168_894" x1="27.4492" y1="280.986" x2="567.712" y2="283.944" gradientUnits="userSpaceOnUse">
<stop stop-color="#53EBFF"/>
<stop offset="1" stop-color="#239EAE"/>
</linearGradient>
<linearGradient id="paint24_linear_168_894" x1="47.25" y1="268.155" x2="573.526" y2="271.037" gradientUnits="userSpaceOnUse">
<stop stop-color="#53EBFF"/>
<stop offset="1" stop-color="#239EAE"/>
</linearGradient>
<linearGradient id="paint25_linear_168_894" x1="67.0488" y1="255.325" x2="579.332" y2="258.129" gradientUnits="userSpaceOnUse">
<stop stop-color="#53EBFF"/>
<stop offset="1" stop-color="#239EAE"/>
</linearGradient>
<linearGradient id="paint26_linear_168_894" x1="84.7031" y1="247.555" x2="577.158" y2="250.251" gradientUnits="userSpaceOnUse">
<stop stop-color="#53EBFF"/>
<stop offset="1" stop-color="#239EAE"/>
</linearGradient>
<linearGradient id="paint27_linear_168_894" x1="102.487" y1="239.899" x2="574.488" y2="242.483" gradientUnits="userSpaceOnUse">
<stop stop-color="#53EBFF"/>
<stop offset="1" stop-color="#239EAE"/>
</linearGradient>
</defs>
</svg>
